<svg width="30" height="31" viewBox="0 0 30 31" fill="none" xmlns="http://www.w3.org/2000/svg">
<path d="M27.1875 5.68555H2.8125C2.29395 5.68555 1.875 6.10449 1.875 6.62305V25.373C1.875 25.8916 2.29395 26.3105 2.8125 26.3105H27.1875C27.7061 26.3105 28.125 25.8916 28.125 25.373V6.62305C28.125 6.10449 27.7061 5.68555 27.1875 5.68555ZM24.8203 8.87598L15.5771 16.0684C15.3486 16.2471 15.0293 16.2471 14.8008 16.0684L5.55469 8.87598C5.51983 8.84908 5.49427 8.81195 5.48158 8.76979C5.46889 8.72763 5.4697 8.68256 5.48392 8.64089C5.49813 8.59922 5.52503 8.56304 5.56083 8.53743C5.59664 8.51181 5.63957 8.49804 5.68359 8.49805H24.6914C24.7354 8.49804 24.7784 8.51181 24.8142 8.53743C24.85 8.56304 24.8769 8.59922 24.8911 8.64089C24.9053 8.68256 24.9061 8.72763 24.8934 8.76979C24.8807 8.81195 24.8552 8.84908 24.8203 8.87598Z" fill="#888888"/>
</svg>
