<svg width="1041" height="363" viewBox="0 0 1041 363" fill="none" xmlns="http://www.w3.org/2000/svg">
<mask id="path-1-inside-1_213_13109" fill="white">
<path d="M520.5 0.996094H1040.5V62.6562H520.5V0.996094Z"/>
</mask>
<path d="M520.5 0.996094H1040.5V62.6562H520.5V0.996094Z" fill="#FDF6F0"/>
<path d="M739.94 30.5881V32.7081H741.22C743.98 32.7081 745.8 32.6481 747.9 32.2281L747.68 30.1081C745.66 30.5281 743.9 30.5881 741.22 30.5881H739.94ZM739.94 24.0481V31.7681H742.56V26.1681H747.18V24.0481H739.94ZM752.56 22.5881V34.7681H755.08V22.5881H752.56ZM750.32 27.0281V29.1881H753.26V27.0281H750.32ZM748.6 22.9081V33.1081H751.08V22.9081H748.6ZM747.38 33.8681V34.3881C747.38 36.3481 745.48 38.4481 741.48 38.9881L742.54 41.0481C747.08 40.3281 749.64 37.6481 749.64 34.3881V33.8681H747.38ZM747.76 33.8681V34.3881C747.76 37.6481 750.32 40.3281 754.86 41.0481L755.92 38.9881C751.92 38.4481 750.02 36.3481 750.02 34.3881V33.8681H747.76ZM759.758 23.3281V25.4281H771.498V23.3281H759.758ZM757.718 29.1081V31.2081H774.478V29.1081H757.718ZM769.898 23.3281V24.5881C769.898 25.8881 769.898 27.3881 769.418 29.4881L772.038 29.7281C772.518 27.5881 772.518 25.9081 772.518 24.5881V23.3281H769.898ZM759.578 32.4681V34.5281H769.818V35.7281H759.598V39.5681H762.258V37.6881H772.458V32.4681H759.578ZM759.598 38.9281V40.9881H772.938V38.9281H759.598ZM793.212 22.5881V35.9681H795.872V22.5881H793.212ZM795.112 27.6281V29.8081H798.332V27.6281H795.112ZM781.992 30.8081V32.9481H783.532C787.652 32.9481 789.772 32.8481 792.032 32.3481L791.772 30.2481C789.552 30.7281 787.552 30.8081 783.532 30.8081H781.992ZM781.992 24.0481V31.9481H784.632V26.1881H790.272V24.0481H781.992ZM783.932 38.6681V40.7881H796.532V38.6681H783.932ZM783.932 34.5681V39.7481H786.592V34.5681H783.932ZM806.946 23.3281V25.4281H818.686V23.3281H806.946ZM804.906 29.1081V31.2081H821.666V29.1081H804.906ZM817.086 23.3281V24.5881C817.086 25.8881 817.086 27.3881 816.606 29.4881L819.226 29.7281C819.706 27.5881 819.706 25.9081 819.706 24.5881V23.3281H817.086ZM806.766 32.4681V34.5281H817.006V35.7281H806.786V39.5681H809.446V37.6881H819.646V32.4681H806.766ZM806.786 38.9281V40.9881H820.126V38.9281H806.786Z" fill="#888888"/>
<path d="M1040.5 59.6562H520.5V65.6562H1040.5V59.6562Z" fill="#FB9749" mask="url(#path-1-inside-1_213_13109)"/>
<mask id="path-4-inside-2_213_13109" fill="white">
<path d="M0.5 0.996094H520.5V62.6562H0.5V0.996094Z"/>
</mask>
<path d="M0.5 0.996094H520.5V62.6562H0.5V0.996094Z" fill="white"/>
<path d="M232.62 22.5881V41.1081H235.16V22.5881H232.62ZM230.2 29.7281V31.8481H233.28V29.7281H230.2ZM228.48 22.9081V40.2281H230.96V22.9081H228.48ZM220.02 24.6281V35.3281H222.68V24.6281H220.02ZM220.02 34.3281V36.6081H221.3C223.18 36.6081 225.3 36.5081 227.72 36.0681L227.46 33.7881C225.16 34.2281 223.08 34.3281 221.3 34.3281H220.02ZM249.538 22.5681V41.0881H252.218V22.5681H249.538ZM251.518 29.6481V31.8281H254.778V29.6481H251.518ZM244.678 24.4881V24.9481C244.678 29.9681 242.378 33.3681 237.518 35.8881L238.998 37.9081C245.158 34.8081 247.278 30.0481 247.278 24.4881H244.678ZM238.538 24.4881V26.6281H246.038V24.4881H238.538ZM261.292 31.8681V33.9881H278.052V31.8681H261.292ZM264.812 23.2281V24.5881C264.812 26.2681 263.852 28.0281 261.432 28.8081L262.632 30.7281C265.612 29.7681 266.812 27.2681 266.812 24.5881V23.2281H264.812ZM265.472 23.2281V24.5881C265.472 27.1881 266.572 29.9681 269.652 30.9881L270.652 28.9281C268.392 28.0481 267.452 26.2281 267.452 24.5881V23.2281H265.472ZM271.852 23.2281V24.5881C271.852 26.2481 270.932 28.0681 268.652 28.9281L269.652 30.9881C272.732 29.9681 273.852 27.2281 273.852 24.5881V23.2281H271.852ZM272.532 23.2281V24.5881C272.532 27.3481 273.712 29.7881 276.712 30.7481L277.912 28.8081C275.492 28.0681 274.532 26.3281 274.532 24.5881V23.2281H272.532ZM263.232 38.6681V40.7881H276.292V38.6681H263.232ZM263.232 35.2081V39.1481H265.892V35.2081H263.232ZM286.946 23.3281V25.4281H298.686V23.3281H286.946ZM284.906 29.1081V31.2081H301.666V29.1081H284.906ZM297.086 23.3281V24.5881C297.086 25.8881 297.086 27.3881 296.606 29.4881L299.226 29.7281C299.706 27.5881 299.706 25.9081 299.706 24.5881V23.3281H297.086ZM286.766 32.4681V34.5281H297.006V35.7281H286.786V39.5681H289.446V37.6881H299.646V32.4681H286.766ZM286.786 38.9281V40.9881H300.126V38.9281H286.786Z" fill="#FB9749"/>
<path d="M0.5 0.996094V-2.00391H-2.5V0.996094H0.5ZM520.5 0.996094H523.5V-2.00391H520.5V0.996094ZM0.5 3.99609H520.5V-2.00391H0.5V3.99609ZM517.5 0.996094V62.6562H523.5V0.996094H517.5ZM3.5 62.6562V0.996094H-2.5V62.6562H3.5Z" fill="#FB9749" mask="url(#path-4-inside-2_213_13109)"/>
<mask id="path-7-inside-3_213_13109" fill="white">
<path d="M0 62.9961H1040V362.996H0V62.9961Z"/>
</mask>
<path d="M0 62.9961H1040V362.996H0V62.9961Z" fill="white"/>
<rect width="952" height="39" transform="translate(44 280.996)" fill="white"/>
<path d="M66.432 295.02V295.944C66.432 297.89 64.808 299.542 61.63 300.34L62.33 301.796C66.194 300.802 68.392 298.464 68.392 295.02H66.432ZM62.372 295.02V296.476H67.636V295.02H62.372ZM70.464 294.278V301.502H72.34V294.278H70.464ZM63.758 302.048V307.102H72.34V302.048H63.758ZM70.506 303.518V305.632H65.592V303.518H70.506ZM83.4269 294.278V302.958H85.2889V294.278H83.4269ZM80.7389 297.344V298.856H83.8469V297.344H80.7389ZM74.9709 295.188V301.152H81.1029V295.188H74.9709ZM79.2689 296.672V299.696H76.8049V296.672H79.2689ZM79.9969 302.202V302.566C79.9969 303.826 78.6249 305.352 75.9089 305.744L76.5809 307.2C79.8149 306.738 81.5789 304.708 81.5789 302.566V302.202H79.9969ZM80.3189 302.202V302.566C80.3189 304.806 82.0829 306.724 85.3029 307.2L86.0029 305.744C83.2169 305.366 81.9009 303.91 81.9009 302.566V302.202H80.3189ZM90.2298 295.272V297.162C90.2298 299.57 89.2358 302.062 87.0518 303.084L88.1718 304.582C90.6218 303.378 91.7418 300.368 91.7418 297.162V295.272H90.2298ZM90.6078 295.272V297.162C90.6078 300.27 91.6298 303.154 93.9678 304.344L95.0878 302.86C93.0158 301.852 92.0918 299.486 92.0918 297.162V295.272H90.6078ZM95.6058 294.278V307.242H97.4818V294.278H95.6058ZM97.0618 299.262V300.816H99.3578V299.262H97.0618Z" fill="#FB9749"/>
<path d="M112.737 294.278V301.544H114.613V294.278H112.737ZM104.575 295.02V300.368H106.423V295.02H104.575ZM104.575 299.388V300.928H105.695C108.019 300.928 109.937 300.788 111.911 300.354L111.687 298.856C109.783 299.262 107.949 299.388 105.695 299.388H104.575ZM105.989 302.09V307.102H114.613V302.09H105.989ZM112.779 303.546V305.632H107.809V303.546H112.779Z" fill="black"/>
<path d="M422.258 305.996V296.002H424.377V305.996H422.258ZM430.748 305.996H428.629V297.766H425.915V296.002H433.462V297.766H430.748V305.996ZM443.735 302.342C440.935 302.342 439.143 303.266 439.143 304.806C439.143 306.318 440.935 307.242 443.735 307.242C446.535 307.242 448.327 306.318 448.327 304.806C448.327 303.266 446.535 302.342 443.735 302.342ZM443.735 303.742C445.485 303.742 446.479 304.106 446.479 304.806C446.479 305.492 445.485 305.842 443.735 305.842C441.985 305.842 440.991 305.492 440.991 304.806C440.991 304.106 441.985 303.742 443.735 303.742ZM439.283 294.852V296.322H447.487V294.852H439.283ZM437.967 300.06V301.544H449.643V300.06H437.967ZM442.293 297.806V300.438H444.141V297.806H442.293ZM446.409 294.852V295.916C446.409 296.924 446.409 297.862 446.059 299.192L447.907 299.388C448.257 298.044 448.257 296.938 448.257 295.916V294.852H446.409ZM450.832 304.232V305.744H462.564V304.232H450.832ZM455.746 301.362V304.582H457.608V301.362H455.746ZM452.05 295.23V301.6H461.276V295.23H452.05ZM459.456 296.714V300.13H453.884V296.714H459.456ZM470.641 297.624V299.122H473.665V297.624H470.641ZM472.685 294.292V303.742H474.547V294.292H472.685ZM465.993 305.534V307.018H474.841V305.534H465.993ZM465.993 302.944V306.416H467.855V302.944H465.993ZM466.693 295.986V296.798C466.693 298.436 465.769 300.13 463.627 300.83L464.565 302.314C467.057 301.488 468.205 299.234 468.205 296.798V295.986H466.693ZM467.085 295.986V296.798C467.085 299.108 468.191 301.264 470.599 302.062L471.509 300.606C469.465 299.92 468.583 298.31 468.583 296.798V295.986H467.085ZM464.131 295.16V296.63H471.103V295.16H464.131ZM488.556 294.278V301.068H490.418V294.278H488.556ZM489.9 296.938V298.45H492.14V296.938H489.9ZM484.86 295.146V296.294C484.86 297.848 483.558 299.262 480.17 299.822L480.912 301.292C484.846 300.564 486.932 298.59 486.932 295.146H484.86ZM480.786 295.146V296.63H486.036V295.146H480.786ZM481.92 301.572V306.402H483.782V302.93H490.474V301.572H481.92ZM481.92 305.744V307.102H490.74V305.744H481.92ZM483.208 303.672V304.974H490.334V303.672H483.208ZM501.981 294.264V307.27H503.857V294.264H501.981ZM496.871 295.174C494.911 295.174 493.469 296.966 493.469 299.794C493.469 302.65 494.911 304.442 496.871 304.442C498.831 304.442 500.273 302.65 500.273 299.794C500.273 296.966 498.831 295.174 496.871 295.174ZM496.871 296.868C497.837 296.868 498.481 297.89 498.481 299.794C498.481 301.726 497.837 302.762 496.871 302.762C495.905 302.762 495.247 301.726 495.247 299.794C495.247 297.89 495.905 296.868 496.871 296.868ZM512.519 296.448V296.924C512.519 298.352 511.609 299.78 509.509 300.354L510.377 301.796C512.855 301.11 514.017 299.15 514.017 296.924V296.448H512.519ZM512.869 296.448V296.924C512.869 299.038 514.031 300.928 516.523 301.586L517.363 300.13C515.277 299.584 514.381 298.24 514.381 296.924V296.448H512.869ZM509.971 295.566V297.022H516.929V295.566H509.971ZM512.519 294.236V296.196H514.381V294.236H512.519ZM517.951 294.278V301.866H519.813V294.278H517.951ZM519.295 297.302V298.828H521.535V297.302H519.295ZM511.385 302.412V307.102H519.813V302.412H511.385ZM517.993 303.868V305.632H513.219V303.868H517.993ZM530.774 294.264V307.228H532.65V294.264H530.774ZM532.16 299.22V300.746H534.442V299.22H532.16ZM527.372 295.608V295.93C527.372 299.444 525.762 301.824 522.36 303.588L523.396 305.002C527.708 302.832 529.192 299.5 529.192 295.608H527.372ZM523.074 295.608V297.106H528.324V295.608H523.074ZM543.681 294.278V307.242H545.529V294.278H543.681ZM545.109 299.332V300.886H547.405V299.332H545.109ZM535.309 296.196V297.68H542.855V296.196H535.309ZM539.103 298.408C537.213 298.408 535.813 299.696 535.813 301.502C535.813 303.308 537.213 304.596 539.103 304.596C540.993 304.596 542.393 303.308 542.393 301.502C542.393 299.696 540.993 298.408 539.103 298.408ZM539.103 299.92C539.985 299.92 540.615 300.508 540.615 301.502C540.615 302.496 539.985 303.084 539.103 303.084C538.221 303.084 537.591 302.496 537.591 301.502C537.591 300.508 538.221 299.92 539.103 299.92ZM538.165 294.488V296.756H540.027V294.488H538.165ZM557.148 294.278V300.83H559.024V294.278H557.148ZM550.372 301.404V302.818H557.176V303.574H550.4V306.22H552.22V304.918H559.024V301.404H550.372ZM550.4 305.716V307.158H559.346V305.716H550.4ZM551.282 294.572V295.552C551.282 297.134 550.358 298.758 548.188 299.416L549.084 300.886C551.618 300.116 552.822 297.946 552.822 295.552V294.572H551.282ZM551.66 294.572V295.552C551.66 297.89 552.822 299.92 555.314 300.648L556.21 299.206C554.096 298.604 553.186 297.092 553.186 295.552V294.572H551.66ZM568.649 296.002C569.939 296.002 570.88 296.28 571.473 296.836C572.065 297.387 572.361 298.148 572.361 299.119C572.361 299.557 572.295 299.976 572.163 300.377C572.031 300.773 571.814 301.127 571.514 301.437C571.217 301.746 570.821 301.993 570.324 302.175C569.827 302.353 569.215 302.441 568.485 302.441H567.576V305.996H565.457V296.002H568.649ZM568.54 297.738H567.576V300.705H568.273C568.67 300.705 569.014 300.653 569.306 300.548C569.597 300.443 569.823 300.279 569.982 300.056C570.142 299.832 570.222 299.545 570.222 299.194C570.222 298.702 570.085 298.338 569.812 298.101C569.538 297.859 569.114 297.738 568.54 297.738ZM580.004 305.996H574.248V296.002H580.004V297.738H576.367V299.933H579.751V301.669H576.367V304.246H580.004V305.996ZM587.852 305.996H582.096V296.002H587.852V297.738H584.215V299.933H587.599V301.669H584.215V304.246H587.852V305.996ZM592.855 296.002C593.762 296.002 594.51 296.111 595.098 296.33C595.69 296.549 596.13 296.879 596.417 297.321C596.704 297.763 596.848 298.322 596.848 298.996C596.848 299.452 596.761 299.851 596.588 300.192C596.415 300.534 596.187 300.824 595.904 301.061C595.622 301.298 595.316 301.491 594.988 301.642L597.928 305.996H595.576L593.19 302.161H592.062V305.996H589.943V296.002H592.855ZM592.705 297.738H592.062V300.438H592.746C593.448 300.438 593.949 300.322 594.25 300.09C594.555 299.853 594.708 299.507 594.708 299.051C594.708 298.577 594.544 298.24 594.216 298.039C593.892 297.839 593.389 297.738 592.705 297.738ZM603.468 295.034V296.504H611.602V295.034H603.468ZM602.138 300.55V302.048H613.856V300.55H602.138ZM606.996 301.6V307.256H608.872V301.6H606.996ZM610.65 295.034V296.182C610.65 297.526 610.65 299.066 610.146 301.236L611.98 301.446C612.484 299.15 612.484 297.582 612.484 296.182V295.034H610.65ZM623.347 294.278V301.866H625.209V294.278H623.347ZM624.467 297.386V298.926H626.931V297.386H624.467ZM616.781 302.37V307.102H625.209V302.37H623.361V303.35H618.615V302.37H616.781ZM618.615 304.75H623.361V305.646H618.615V304.75ZM615.003 295.398V296.868H622.633V295.398H615.003ZM618.825 297.218C616.935 297.218 615.633 298.142 615.633 299.514C615.633 300.886 616.935 301.81 618.825 301.81C620.701 301.81 622.003 300.886 622.003 299.514C622.003 298.142 620.701 297.218 618.825 297.218ZM618.825 298.576C619.651 298.576 620.225 298.912 620.225 299.514C620.225 300.13 619.651 300.452 618.825 300.452C617.985 300.452 617.425 300.13 617.425 299.514C617.425 298.912 617.985 298.576 618.825 298.576ZM617.887 294.18V296.224H619.749V294.18H617.887ZM636.856 294.278V307.242H638.718V294.278H636.856ZM628.568 295.51V303.56H630.416V295.51H628.568ZM628.568 302.468V304.05H629.716C631.69 304.05 633.832 303.91 636.058 303.448L635.848 301.908C633.706 302.328 631.606 302.468 629.716 302.468H628.568ZM649.049 294.264V307.27H650.925V294.264H649.049ZM650.505 299.066V300.592H652.801V299.066H650.505ZM641.265 302.608V304.148H642.357C644.611 304.148 646.389 304.092 648.349 303.742L648.167 302.202C646.263 302.538 644.541 302.608 642.357 302.608H641.265ZM641.265 295.468V303.35H643.113V296.966H647.313V295.468H641.265ZM653.88 305.019C653.88 304.59 653.996 304.289 654.229 304.116C654.465 303.943 654.75 303.856 655.083 303.856C655.407 303.856 655.685 303.943 655.917 304.116C656.154 304.289 656.272 304.59 656.272 305.019C656.272 305.429 656.154 305.725 655.917 305.907C655.685 306.09 655.407 306.181 655.083 306.181C654.75 306.181 654.465 306.09 654.229 305.907C653.996 305.725 653.88 305.429 653.88 305.019Z" fill="#666666"/>
<path d="M938.5 301.996C938.5 302.659 938.237 303.295 937.768 303.764C937.299 304.233 936.663 304.496 936 304.496C935.337 304.496 934.701 304.233 934.232 303.764C933.763 303.295 933.5 302.659 933.5 301.996C933.5 301.333 933.763 300.697 934.232 300.228C934.701 299.759 935.337 299.496 936 299.496C936.663 299.496 937.299 299.759 937.768 300.228C938.237 300.697 938.5 301.333 938.5 301.996Z" fill="#666666"/>
<path d="M928 301.996C928 301.996 931 296.496 936 296.496C941 296.496 944 301.996 944 301.996C944 301.996 941 307.496 936 307.496C931 307.496 928 301.996 928 301.996ZM936 305.496C936.928 305.496 937.818 305.127 938.475 304.471C939.131 303.815 939.5 302.924 939.5 301.996C939.5 301.068 939.131 300.178 938.475 299.521C937.818 298.865 936.928 298.496 936 298.496C935.072 298.496 934.182 298.865 933.525 299.521C932.869 300.178 932.5 301.068 932.5 301.996C932.5 302.924 932.869 303.815 933.525 304.471C934.182 305.127 935.072 305.496 936 305.496Z" fill="#666666"/>
<g clip-path="url(#clip0_213_13109)">
<path d="M962 295.703V304.211H964.462V306.673L968.3 304.211H973.947V295.703H962ZM974.51 297.573V298.644H974.929V304.711H972.864V306.333L970.469 304.797L970.337 304.711H968.531L966.862 305.782H970.021L973.11 307.763L973.935 308.291V305.782H976V297.573H974.51Z" fill="#666666"/>
</g>
<rect width="952" height="39" transform="translate(44 221.996)" fill="white"/>
<path d="M66.432 236.02V236.944C66.432 238.89 64.808 240.542 61.63 241.34L62.33 242.796C66.194 241.802 68.392 239.464 68.392 236.02H66.432ZM62.372 236.02V237.476H67.636V236.02H62.372ZM70.464 235.278V242.502H72.34V235.278H70.464ZM63.758 243.048V248.102H72.34V243.048H63.758ZM70.506 244.518V246.632H65.592V244.518H70.506ZM83.4269 235.278V243.958H85.2889V235.278H83.4269ZM80.7389 238.344V239.856H83.8469V238.344H80.7389ZM74.9709 236.188V242.152H81.1029V236.188H74.9709ZM79.2689 237.672V240.696H76.8049V237.672H79.2689ZM79.9969 243.202V243.566C79.9969 244.826 78.6249 246.352 75.9089 246.744L76.5809 248.2C79.8149 247.738 81.5789 245.708 81.5789 243.566V243.202H79.9969ZM80.3189 243.202V243.566C80.3189 245.806 82.0829 247.724 85.3029 248.2L86.0029 246.744C83.2169 246.366 81.9009 244.91 81.9009 243.566V243.202H80.3189ZM90.2298 236.272V238.162C90.2298 240.57 89.2358 243.062 87.0518 244.084L88.1718 245.582C90.6218 244.378 91.7418 241.368 91.7418 238.162V236.272H90.2298ZM90.6078 236.272V238.162C90.6078 241.27 91.6298 244.154 93.9678 245.344L95.0878 243.86C93.0158 242.852 92.0918 240.486 92.0918 238.162V236.272H90.6078ZM95.6058 235.278V248.242H97.4818V235.278H95.6058ZM97.0618 240.262V241.816H99.3578V240.262H97.0618Z" fill="#FB9749"/>
<path d="M112.737 235.278V242.544H114.613V235.278H112.737ZM104.575 236.02V241.368H106.423V236.02H104.575ZM104.575 240.388V241.928H105.695C108.019 241.928 109.937 241.788 111.911 241.354L111.687 239.856C109.783 240.262 107.949 240.388 105.695 240.388H104.575ZM105.989 243.09V248.102H114.613V243.09H105.989ZM112.779 244.546V246.632H107.809V244.546H112.779Z" fill="black"/>
<path d="M422.258 246.996V237.002H424.377V246.996H422.258ZM430.748 246.996H428.629V238.766H425.915V237.002H433.462V238.766H430.748V246.996ZM443.735 243.342C440.935 243.342 439.143 244.266 439.143 245.806C439.143 247.318 440.935 248.242 443.735 248.242C446.535 248.242 448.327 247.318 448.327 245.806C448.327 244.266 446.535 243.342 443.735 243.342ZM443.735 244.742C445.485 244.742 446.479 245.106 446.479 245.806C446.479 246.492 445.485 246.842 443.735 246.842C441.985 246.842 440.991 246.492 440.991 245.806C440.991 245.106 441.985 244.742 443.735 244.742ZM439.283 235.852V237.322H447.487V235.852H439.283ZM437.967 241.06V242.544H449.643V241.06H437.967ZM442.293 238.806V241.438H444.141V238.806H442.293ZM446.409 235.852V236.916C446.409 237.924 446.409 238.862 446.059 240.192L447.907 240.388C448.257 239.044 448.257 237.938 448.257 236.916V235.852H446.409ZM450.832 245.232V246.744H462.564V245.232H450.832ZM455.746 242.362V245.582H457.608V242.362H455.746ZM452.05 236.23V242.6H461.276V236.23H452.05ZM459.456 237.714V241.13H453.884V237.714H459.456ZM470.641 238.624V240.122H473.665V238.624H470.641ZM472.685 235.292V244.742H474.547V235.292H472.685ZM465.993 246.534V248.018H474.841V246.534H465.993ZM465.993 243.944V247.416H467.855V243.944H465.993ZM466.693 236.986V237.798C466.693 239.436 465.769 241.13 463.627 241.83L464.565 243.314C467.057 242.488 468.205 240.234 468.205 237.798V236.986H466.693ZM467.085 236.986V237.798C467.085 240.108 468.191 242.264 470.599 243.062L471.509 241.606C469.465 240.92 468.583 239.31 468.583 237.798V236.986H467.085ZM464.131 236.16V237.63H471.103V236.16H464.131ZM488.556 235.278V242.068H490.418V235.278H488.556ZM489.9 237.938V239.45H492.14V237.938H489.9ZM484.86 236.146V237.294C484.86 238.848 483.558 240.262 480.17 240.822L480.912 242.292C484.846 241.564 486.932 239.59 486.932 236.146H484.86ZM480.786 236.146V237.63H486.036V236.146H480.786ZM481.92 242.572V247.402H483.782V243.93H490.474V242.572H481.92ZM481.92 246.744V248.102H490.74V246.744H481.92ZM483.208 244.672V245.974H490.334V244.672H483.208ZM501.981 235.264V248.27H503.857V235.264H501.981ZM496.871 236.174C494.911 236.174 493.469 237.966 493.469 240.794C493.469 243.65 494.911 245.442 496.871 245.442C498.831 245.442 500.273 243.65 500.273 240.794C500.273 237.966 498.831 236.174 496.871 236.174ZM496.871 237.868C497.837 237.868 498.481 238.89 498.481 240.794C498.481 242.726 497.837 243.762 496.871 243.762C495.905 243.762 495.247 242.726 495.247 240.794C495.247 238.89 495.905 237.868 496.871 237.868ZM512.519 237.448V237.924C512.519 239.352 511.609 240.78 509.509 241.354L510.377 242.796C512.855 242.11 514.017 240.15 514.017 237.924V237.448H512.519ZM512.869 237.448V237.924C512.869 240.038 514.031 241.928 516.523 242.586L517.363 241.13C515.277 240.584 514.381 239.24 514.381 237.924V237.448H512.869ZM509.971 236.566V238.022H516.929V236.566H509.971ZM512.519 235.236V237.196H514.381V235.236H512.519ZM517.951 235.278V242.866H519.813V235.278H517.951ZM519.295 238.302V239.828H521.535V238.302H519.295ZM511.385 243.412V248.102H519.813V243.412H511.385ZM517.993 244.868V246.632H513.219V244.868H517.993ZM530.774 235.264V248.228H532.65V235.264H530.774ZM532.16 240.22V241.746H534.442V240.22H532.16ZM527.372 236.608V236.93C527.372 240.444 525.762 242.824 522.36 244.588L523.396 246.002C527.708 243.832 529.192 240.5 529.192 236.608H527.372ZM523.074 236.608V238.106H528.324V236.608H523.074ZM543.681 235.278V248.242H545.529V235.278H543.681ZM545.109 240.332V241.886H547.405V240.332H545.109ZM535.309 237.196V238.68H542.855V237.196H535.309ZM539.103 239.408C537.213 239.408 535.813 240.696 535.813 242.502C535.813 244.308 537.213 245.596 539.103 245.596C540.993 245.596 542.393 244.308 542.393 242.502C542.393 240.696 540.993 239.408 539.103 239.408ZM539.103 240.92C539.985 240.92 540.615 241.508 540.615 242.502C540.615 243.496 539.985 244.084 539.103 244.084C538.221 244.084 537.591 243.496 537.591 242.502C537.591 241.508 538.221 240.92 539.103 240.92ZM538.165 235.488V237.756H540.027V235.488H538.165ZM557.148 235.278V241.83H559.024V235.278H557.148ZM550.372 242.404V243.818H557.176V244.574H550.4V247.22H552.22V245.918H559.024V242.404H550.372ZM550.4 246.716V248.158H559.346V246.716H550.4ZM551.282 235.572V236.552C551.282 238.134 550.358 239.758 548.188 240.416L549.084 241.886C551.618 241.116 552.822 238.946 552.822 236.552V235.572H551.282ZM551.66 235.572V236.552C551.66 238.89 552.822 240.92 555.314 241.648L556.21 240.206C554.096 239.604 553.186 238.092 553.186 236.552V235.572H551.66ZM568.649 237.002C569.939 237.002 570.88 237.28 571.473 237.836C572.065 238.387 572.361 239.148 572.361 240.119C572.361 240.557 572.295 240.976 572.163 241.377C572.031 241.773 571.814 242.127 571.514 242.437C571.217 242.746 570.821 242.993 570.324 243.175C569.827 243.353 569.215 243.441 568.485 243.441H567.576V246.996H565.457V237.002H568.649ZM568.54 238.738H567.576V241.705H568.273C568.67 241.705 569.014 241.653 569.306 241.548C569.597 241.443 569.823 241.279 569.982 241.056C570.142 240.832 570.222 240.545 570.222 240.194C570.222 239.702 570.085 239.338 569.812 239.101C569.538 238.859 569.114 238.738 568.54 238.738ZM580.004 246.996H574.248V237.002H580.004V238.738H576.367V240.933H579.751V242.669H576.367V245.246H580.004V246.996ZM587.852 246.996H582.096V237.002H587.852V238.738H584.215V240.933H587.599V242.669H584.215V245.246H587.852V246.996ZM592.855 237.002C593.762 237.002 594.51 237.111 595.098 237.33C595.69 237.549 596.13 237.879 596.417 238.321C596.704 238.763 596.848 239.322 596.848 239.996C596.848 240.452 596.761 240.851 596.588 241.192C596.415 241.534 596.187 241.824 595.904 242.061C595.622 242.298 595.316 242.491 594.988 242.642L597.928 246.996H595.576L593.19 243.161H592.062V246.996H589.943V237.002H592.855ZM592.705 238.738H592.062V241.438H592.746C593.448 241.438 593.949 241.322 594.25 241.09C594.555 240.853 594.708 240.507 594.708 240.051C594.708 239.577 594.544 239.24 594.216 239.039C593.892 238.839 593.389 238.738 592.705 238.738ZM603.468 236.034V237.504H611.602V236.034H603.468ZM602.138 241.55V243.048H613.856V241.55H602.138ZM606.996 242.6V248.256H608.872V242.6H606.996ZM610.65 236.034V237.182C610.65 238.526 610.65 240.066 610.146 242.236L611.98 242.446C612.484 240.15 612.484 238.582 612.484 237.182V236.034H610.65ZM623.347 235.278V242.866H625.209V235.278H623.347ZM624.467 238.386V239.926H626.931V238.386H624.467ZM616.781 243.37V248.102H625.209V243.37H623.361V244.35H618.615V243.37H616.781ZM618.615 245.75H623.361V246.646H618.615V245.75ZM615.003 236.398V237.868H622.633V236.398H615.003ZM618.825 238.218C616.935 238.218 615.633 239.142 615.633 240.514C615.633 241.886 616.935 242.81 618.825 242.81C620.701 242.81 622.003 241.886 622.003 240.514C622.003 239.142 620.701 238.218 618.825 238.218ZM618.825 239.576C619.651 239.576 620.225 239.912 620.225 240.514C620.225 241.13 619.651 241.452 618.825 241.452C617.985 241.452 617.425 241.13 617.425 240.514C617.425 239.912 617.985 239.576 618.825 239.576ZM617.887 235.18V237.224H619.749V235.18H617.887ZM636.856 235.278V248.242H638.718V235.278H636.856ZM628.568 236.51V244.56H630.416V236.51H628.568ZM628.568 243.468V245.05H629.716C631.69 245.05 633.832 244.91 636.058 244.448L635.848 242.908C633.706 243.328 631.606 243.468 629.716 243.468H628.568ZM649.049 235.264V248.27H650.925V235.264H649.049ZM650.505 240.066V241.592H652.801V240.066H650.505ZM641.265 243.608V245.148H642.357C644.611 245.148 646.389 245.092 648.349 244.742L648.167 243.202C646.263 243.538 644.541 243.608 642.357 243.608H641.265ZM641.265 236.468V244.35H643.113V237.966H647.313V236.468H641.265ZM653.88 246.019C653.88 245.59 653.996 245.289 654.229 245.116C654.465 244.943 654.75 244.856 655.083 244.856C655.407 244.856 655.685 244.943 655.917 245.116C656.154 245.289 656.272 245.59 656.272 246.019C656.272 246.429 656.154 246.725 655.917 246.907C655.685 247.09 655.407 247.181 655.083 247.181C654.75 247.181 654.465 247.09 654.229 246.907C653.996 246.725 653.88 246.429 653.88 246.019Z" fill="#666666"/>
<path d="M938.5 242.996C938.5 243.659 938.237 244.295 937.768 244.764C937.299 245.233 936.663 245.496 936 245.496C935.337 245.496 934.701 245.233 934.232 244.764C933.763 244.295 933.5 243.659 933.5 242.996C933.5 242.333 933.763 241.697 934.232 241.228C934.701 240.759 935.337 240.496 936 240.496C936.663 240.496 937.299 240.759 937.768 241.228C938.237 241.697 938.5 242.333 938.5 242.996Z" fill="#666666"/>
<path d="M928 242.996C928 242.996 931 237.496 936 237.496C941 237.496 944 242.996 944 242.996C944 242.996 941 248.496 936 248.496C931 248.496 928 242.996 928 242.996ZM936 246.496C936.928 246.496 937.818 246.127 938.475 245.471C939.131 244.815 939.5 243.924 939.5 242.996C939.5 242.068 939.131 241.178 938.475 240.521C937.818 239.865 936.928 239.496 936 239.496C935.072 239.496 934.182 239.865 933.525 240.521C932.869 241.178 932.5 242.068 932.5 242.996C932.5 243.924 932.869 244.815 933.525 245.471C934.182 246.127 935.072 246.496 936 246.496Z" fill="#666666"/>
<g clip-path="url(#clip1_213_13109)">
<path d="M962 236.703V245.211H964.462V247.673L968.3 245.211H973.947V236.703H962ZM974.51 238.573V239.644H974.929V245.711H972.864V247.333L970.469 245.797L970.337 245.711H968.531L966.862 246.782H970.021L973.11 248.763L973.935 249.291V246.782H976V238.573H974.51Z" fill="#666666"/>
</g>
<rect width="952" height="39" transform="translate(44 162.996)" fill="white"/>
<path d="M66.432 177.02V177.944C66.432 179.89 64.808 181.542 61.63 182.34L62.33 183.796C66.194 182.802 68.392 180.464 68.392 177.02H66.432ZM62.372 177.02V178.476H67.636V177.02H62.372ZM70.464 176.278V183.502H72.34V176.278H70.464ZM63.758 184.048V189.102H72.34V184.048H63.758ZM70.506 185.518V187.632H65.592V185.518H70.506ZM83.4269 176.278V184.958H85.2889V176.278H83.4269ZM80.7389 179.344V180.856H83.8469V179.344H80.7389ZM74.9709 177.188V183.152H81.1029V177.188H74.9709ZM79.2689 178.672V181.696H76.8049V178.672H79.2689ZM79.9969 184.202V184.566C79.9969 185.826 78.6249 187.352 75.9089 187.744L76.5809 189.2C79.8149 188.738 81.5789 186.708 81.5789 184.566V184.202H79.9969ZM80.3189 184.202V184.566C80.3189 186.806 82.0829 188.724 85.3029 189.2L86.0029 187.744C83.2169 187.366 81.9009 185.91 81.9009 184.566V184.202H80.3189ZM90.2298 177.272V179.162C90.2298 181.57 89.2358 184.062 87.0518 185.084L88.1718 186.582C90.6218 185.378 91.7418 182.368 91.7418 179.162V177.272H90.2298ZM90.6078 177.272V179.162C90.6078 182.27 91.6298 185.154 93.9678 186.344L95.0878 184.86C93.0158 183.852 92.0918 181.486 92.0918 179.162V177.272H90.6078ZM95.6058 176.278V189.242H97.4818V176.278H95.6058ZM97.0618 181.262V182.816H99.3578V181.262H97.0618Z" fill="#FB9749"/>
<path d="M112.737 176.278V183.544H114.613V176.278H112.737ZM104.575 177.02V182.368H106.423V177.02H104.575ZM104.575 181.388V182.928H105.695C108.019 182.928 109.937 182.788 111.911 182.354L111.687 180.856C109.783 181.262 107.949 181.388 105.695 181.388H104.575ZM105.989 184.09V189.102H114.613V184.09H105.989ZM112.779 185.546V187.632H107.809V185.546H112.779Z" fill="black"/>
<path d="M422.258 187.996V178.002H424.377V187.996H422.258ZM430.748 187.996H428.629V179.766H425.915V178.002H433.462V179.766H430.748V187.996ZM443.735 184.342C440.935 184.342 439.143 185.266 439.143 186.806C439.143 188.318 440.935 189.242 443.735 189.242C446.535 189.242 448.327 188.318 448.327 186.806C448.327 185.266 446.535 184.342 443.735 184.342ZM443.735 185.742C445.485 185.742 446.479 186.106 446.479 186.806C446.479 187.492 445.485 187.842 443.735 187.842C441.985 187.842 440.991 187.492 440.991 186.806C440.991 186.106 441.985 185.742 443.735 185.742ZM439.283 176.852V178.322H447.487V176.852H439.283ZM437.967 182.06V183.544H449.643V182.06H437.967ZM442.293 179.806V182.438H444.141V179.806H442.293ZM446.409 176.852V177.916C446.409 178.924 446.409 179.862 446.059 181.192L447.907 181.388C448.257 180.044 448.257 178.938 448.257 177.916V176.852H446.409ZM450.832 186.232V187.744H462.564V186.232H450.832ZM455.746 183.362V186.582H457.608V183.362H455.746ZM452.05 177.23V183.6H461.276V177.23H452.05ZM459.456 178.714V182.13H453.884V178.714H459.456ZM470.641 179.624V181.122H473.665V179.624H470.641ZM472.685 176.292V185.742H474.547V176.292H472.685ZM465.993 187.534V189.018H474.841V187.534H465.993ZM465.993 184.944V188.416H467.855V184.944H465.993ZM466.693 177.986V178.798C466.693 180.436 465.769 182.13 463.627 182.83L464.565 184.314C467.057 183.488 468.205 181.234 468.205 178.798V177.986H466.693ZM467.085 177.986V178.798C467.085 181.108 468.191 183.264 470.599 184.062L471.509 182.606C469.465 181.92 468.583 180.31 468.583 178.798V177.986H467.085ZM464.131 177.16V178.63H471.103V177.16H464.131ZM488.556 176.278V183.068H490.418V176.278H488.556ZM489.9 178.938V180.45H492.14V178.938H489.9ZM484.86 177.146V178.294C484.86 179.848 483.558 181.262 480.17 181.822L480.912 183.292C484.846 182.564 486.932 180.59 486.932 177.146H484.86ZM480.786 177.146V178.63H486.036V177.146H480.786ZM481.92 183.572V188.402H483.782V184.93H490.474V183.572H481.92ZM481.92 187.744V189.102H490.74V187.744H481.92ZM483.208 185.672V186.974H490.334V185.672H483.208ZM501.981 176.264V189.27H503.857V176.264H501.981ZM496.871 177.174C494.911 177.174 493.469 178.966 493.469 181.794C493.469 184.65 494.911 186.442 496.871 186.442C498.831 186.442 500.273 184.65 500.273 181.794C500.273 178.966 498.831 177.174 496.871 177.174ZM496.871 178.868C497.837 178.868 498.481 179.89 498.481 181.794C498.481 183.726 497.837 184.762 496.871 184.762C495.905 184.762 495.247 183.726 495.247 181.794C495.247 179.89 495.905 178.868 496.871 178.868ZM512.519 178.448V178.924C512.519 180.352 511.609 181.78 509.509 182.354L510.377 183.796C512.855 183.11 514.017 181.15 514.017 178.924V178.448H512.519ZM512.869 178.448V178.924C512.869 181.038 514.031 182.928 516.523 183.586L517.363 182.13C515.277 181.584 514.381 180.24 514.381 178.924V178.448H512.869ZM509.971 177.566V179.022H516.929V177.566H509.971ZM512.519 176.236V178.196H514.381V176.236H512.519ZM517.951 176.278V183.866H519.813V176.278H517.951ZM519.295 179.302V180.828H521.535V179.302H519.295ZM511.385 184.412V189.102H519.813V184.412H511.385ZM517.993 185.868V187.632H513.219V185.868H517.993ZM530.774 176.264V189.228H532.65V176.264H530.774ZM532.16 181.22V182.746H534.442V181.22H532.16ZM527.372 177.608V177.93C527.372 181.444 525.762 183.824 522.36 185.588L523.396 187.002C527.708 184.832 529.192 181.5 529.192 177.608H527.372ZM523.074 177.608V179.106H528.324V177.608H523.074ZM543.681 176.278V189.242H545.529V176.278H543.681ZM545.109 181.332V182.886H547.405V181.332H545.109ZM535.309 178.196V179.68H542.855V178.196H535.309ZM539.103 180.408C537.213 180.408 535.813 181.696 535.813 183.502C535.813 185.308 537.213 186.596 539.103 186.596C540.993 186.596 542.393 185.308 542.393 183.502C542.393 181.696 540.993 180.408 539.103 180.408ZM539.103 181.92C539.985 181.92 540.615 182.508 540.615 183.502C540.615 184.496 539.985 185.084 539.103 185.084C538.221 185.084 537.591 184.496 537.591 183.502C537.591 182.508 538.221 181.92 539.103 181.92ZM538.165 176.488V178.756H540.027V176.488H538.165ZM557.148 176.278V182.83H559.024V176.278H557.148ZM550.372 183.404V184.818H557.176V185.574H550.4V188.22H552.22V186.918H559.024V183.404H550.372ZM550.4 187.716V189.158H559.346V187.716H550.4ZM551.282 176.572V177.552C551.282 179.134 550.358 180.758 548.188 181.416L549.084 182.886C551.618 182.116 552.822 179.946 552.822 177.552V176.572H551.282ZM551.66 176.572V177.552C551.66 179.89 552.822 181.92 555.314 182.648L556.21 181.206C554.096 180.604 553.186 179.092 553.186 177.552V176.572H551.66ZM568.649 178.002C569.939 178.002 570.88 178.28 571.473 178.836C572.065 179.387 572.361 180.148 572.361 181.119C572.361 181.557 572.295 181.976 572.163 182.377C572.031 182.773 571.814 183.127 571.514 183.437C571.217 183.746 570.821 183.993 570.324 184.175C569.827 184.353 569.215 184.441 568.485 184.441H567.576V187.996H565.457V178.002H568.649ZM568.54 179.738H567.576V182.705H568.273C568.67 182.705 569.014 182.653 569.306 182.548C569.597 182.443 569.823 182.279 569.982 182.056C570.142 181.832 570.222 181.545 570.222 181.194C570.222 180.702 570.085 180.338 569.812 180.101C569.538 179.859 569.114 179.738 568.54 179.738ZM580.004 187.996H574.248V178.002H580.004V179.738H576.367V181.933H579.751V183.669H576.367V186.246H580.004V187.996ZM587.852 187.996H582.096V178.002H587.852V179.738H584.215V181.933H587.599V183.669H584.215V186.246H587.852V187.996ZM592.855 178.002C593.762 178.002 594.51 178.111 595.098 178.33C595.69 178.549 596.13 178.879 596.417 179.321C596.704 179.763 596.848 180.322 596.848 180.996C596.848 181.452 596.761 181.851 596.588 182.192C596.415 182.534 596.187 182.824 595.904 183.061C595.622 183.298 595.316 183.491 594.988 183.642L597.928 187.996H595.576L593.19 184.161H592.062V187.996H589.943V178.002H592.855ZM592.705 179.738H592.062V182.438H592.746C593.448 182.438 593.949 182.322 594.25 182.09C594.555 181.853 594.708 181.507 594.708 181.051C594.708 180.577 594.544 180.24 594.216 180.039C593.892 179.839 593.389 179.738 592.705 179.738ZM603.468 177.034V178.504H611.602V177.034H603.468ZM602.138 182.55V184.048H613.856V182.55H602.138ZM606.996 183.6V189.256H608.872V183.6H606.996ZM610.65 177.034V178.182C610.65 179.526 610.65 181.066 610.146 183.236L611.98 183.446C612.484 181.15 612.484 179.582 612.484 178.182V177.034H610.65ZM623.347 176.278V183.866H625.209V176.278H623.347ZM624.467 179.386V180.926H626.931V179.386H624.467ZM616.781 184.37V189.102H625.209V184.37H623.361V185.35H618.615V184.37H616.781ZM618.615 186.75H623.361V187.646H618.615V186.75ZM615.003 177.398V178.868H622.633V177.398H615.003ZM618.825 179.218C616.935 179.218 615.633 180.142 615.633 181.514C615.633 182.886 616.935 183.81 618.825 183.81C620.701 183.81 622.003 182.886 622.003 181.514C622.003 180.142 620.701 179.218 618.825 179.218ZM618.825 180.576C619.651 180.576 620.225 180.912 620.225 181.514C620.225 182.13 619.651 182.452 618.825 182.452C617.985 182.452 617.425 182.13 617.425 181.514C617.425 180.912 617.985 180.576 618.825 180.576ZM617.887 176.18V178.224H619.749V176.18H617.887ZM636.856 176.278V189.242H638.718V176.278H636.856ZM628.568 177.51V185.56H630.416V177.51H628.568ZM628.568 184.468V186.05H629.716C631.69 186.05 633.832 185.91 636.058 185.448L635.848 183.908C633.706 184.328 631.606 184.468 629.716 184.468H628.568ZM649.049 176.264V189.27H650.925V176.264H649.049ZM650.505 181.066V182.592H652.801V181.066H650.505ZM641.265 184.608V186.148H642.357C644.611 186.148 646.389 186.092 648.349 185.742L648.167 184.202C646.263 184.538 644.541 184.608 642.357 184.608H641.265ZM641.265 177.468V185.35H643.113V178.966H647.313V177.468H641.265ZM653.88 187.019C653.88 186.59 653.996 186.289 654.229 186.116C654.465 185.943 654.75 185.856 655.083 185.856C655.407 185.856 655.685 185.943 655.917 186.116C656.154 186.289 656.272 186.59 656.272 187.019C656.272 187.429 656.154 187.725 655.917 187.907C655.685 188.09 655.407 188.181 655.083 188.181C654.75 188.181 654.465 188.09 654.229 187.907C653.996 187.725 653.88 187.429 653.88 187.019Z" fill="#666666"/>
<path d="M938.5 183.996C938.5 184.659 938.237 185.295 937.768 185.764C937.299 186.233 936.663 186.496 936 186.496C935.337 186.496 934.701 186.233 934.232 185.764C933.763 185.295 933.5 184.659 933.5 183.996C933.5 183.333 933.763 182.697 934.232 182.228C934.701 181.759 935.337 181.496 936 181.496C936.663 181.496 937.299 181.759 937.768 182.228C938.237 182.697 938.5 183.333 938.5 183.996Z" fill="#666666"/>
<path d="M928 183.996C928 183.996 931 178.496 936 178.496C941 178.496 944 183.996 944 183.996C944 183.996 941 189.496 936 189.496C931 189.496 928 183.996 928 183.996ZM936 187.496C936.928 187.496 937.818 187.127 938.475 186.471C939.131 185.815 939.5 184.924 939.5 183.996C939.5 183.068 939.131 182.178 938.475 181.521C937.818 180.865 936.928 180.496 936 180.496C935.072 180.496 934.182 180.865 933.525 181.521C932.869 182.178 932.5 183.068 932.5 183.996C932.5 184.924 932.869 185.815 933.525 186.471C934.182 187.127 935.072 187.496 936 187.496Z" fill="#666666"/>
<g clip-path="url(#clip2_213_13109)">
<path d="M962 177.703V186.211H964.462V188.673L968.3 186.211H973.947V177.703H962ZM974.51 179.573V180.644H974.929V186.711H972.864V188.333L970.469 186.797L970.337 186.711H968.531L966.862 187.782H970.021L973.11 189.763L973.935 190.291V187.782H976V179.573H974.51Z" fill="#666666"/>
</g>
<rect width="952" height="39" transform="translate(44 103.996)" fill="white"/>
<path d="M66.432 118.02V118.944C66.432 120.89 64.808 122.542 61.63 123.34L62.33 124.796C66.194 123.802 68.392 121.464 68.392 118.02H66.432ZM62.372 118.02V119.476H67.636V118.02H62.372ZM70.464 117.278V124.502H72.34V117.278H70.464ZM63.758 125.048V130.102H72.34V125.048H63.758ZM70.506 126.518V128.632H65.592V126.518H70.506ZM83.4269 117.278V125.958H85.2889V117.278H83.4269ZM80.7389 120.344V121.856H83.8469V120.344H80.7389ZM74.9709 118.188V124.152H81.1029V118.188H74.9709ZM79.2689 119.672V122.696H76.8049V119.672H79.2689ZM79.9969 125.202V125.566C79.9969 126.826 78.6249 128.352 75.9089 128.744L76.5809 130.2C79.8149 129.738 81.5789 127.708 81.5789 125.566V125.202H79.9969ZM80.3189 125.202V125.566C80.3189 127.806 82.0829 129.724 85.3029 130.2L86.0029 128.744C83.2169 128.366 81.9009 126.91 81.9009 125.566V125.202H80.3189ZM90.2298 118.272V120.162C90.2298 122.57 89.2358 125.062 87.0518 126.084L88.1718 127.582C90.6218 126.378 91.7418 123.368 91.7418 120.162V118.272H90.2298ZM90.6078 118.272V120.162C90.6078 123.27 91.6298 126.154 93.9678 127.344L95.0878 125.86C93.0158 124.852 92.0918 122.486 92.0918 120.162V118.272H90.6078ZM95.6058 117.278V130.242H97.4818V117.278H95.6058ZM97.0618 122.262V123.816H99.3578V122.262H97.0618Z" fill="#FB9749"/>
<path d="M112.737 117.278V124.544H114.613V117.278H112.737ZM104.575 118.02V123.368H106.423V118.02H104.575ZM104.575 122.388V123.928H105.695C108.019 123.928 109.937 123.788 111.911 123.354L111.687 121.856C109.783 122.262 107.949 122.388 105.695 122.388H104.575ZM105.989 125.09V130.102H114.613V125.09H105.989ZM112.779 126.546V128.632H107.809V126.546H112.779Z" fill="black"/>
<path d="M422.258 128.996V119.002H424.377V128.996H422.258ZM430.748 128.996H428.629V120.766H425.915V119.002H433.462V120.766H430.748V128.996ZM443.735 125.342C440.935 125.342 439.143 126.266 439.143 127.806C439.143 129.318 440.935 130.242 443.735 130.242C446.535 130.242 448.327 129.318 448.327 127.806C448.327 126.266 446.535 125.342 443.735 125.342ZM443.735 126.742C445.485 126.742 446.479 127.106 446.479 127.806C446.479 128.492 445.485 128.842 443.735 128.842C441.985 128.842 440.991 128.492 440.991 127.806C440.991 127.106 441.985 126.742 443.735 126.742ZM439.283 117.852V119.322H447.487V117.852H439.283ZM437.967 123.06V124.544H449.643V123.06H437.967ZM442.293 120.806V123.438H444.141V120.806H442.293ZM446.409 117.852V118.916C446.409 119.924 446.409 120.862 446.059 122.192L447.907 122.388C448.257 121.044 448.257 119.938 448.257 118.916V117.852H446.409ZM450.832 127.232V128.744H462.564V127.232H450.832ZM455.746 124.362V127.582H457.608V124.362H455.746ZM452.05 118.23V124.6H461.276V118.23H452.05ZM459.456 119.714V123.13H453.884V119.714H459.456ZM470.641 120.624V122.122H473.665V120.624H470.641ZM472.685 117.292V126.742H474.547V117.292H472.685ZM465.993 128.534V130.018H474.841V128.534H465.993ZM465.993 125.944V129.416H467.855V125.944H465.993ZM466.693 118.986V119.798C466.693 121.436 465.769 123.13 463.627 123.83L464.565 125.314C467.057 124.488 468.205 122.234 468.205 119.798V118.986H466.693ZM467.085 118.986V119.798C467.085 122.108 468.191 124.264 470.599 125.062L471.509 123.606C469.465 122.92 468.583 121.31 468.583 119.798V118.986H467.085ZM464.131 118.16V119.63H471.103V118.16H464.131ZM488.556 117.278V124.068H490.418V117.278H488.556ZM489.9 119.938V121.45H492.14V119.938H489.9ZM484.86 118.146V119.294C484.86 120.848 483.558 122.262 480.17 122.822L480.912 124.292C484.846 123.564 486.932 121.59 486.932 118.146H484.86ZM480.786 118.146V119.63H486.036V118.146H480.786ZM481.92 124.572V129.402H483.782V125.93H490.474V124.572H481.92ZM481.92 128.744V130.102H490.74V128.744H481.92ZM483.208 126.672V127.974H490.334V126.672H483.208ZM501.981 117.264V130.27H503.857V117.264H501.981ZM496.871 118.174C494.911 118.174 493.469 119.966 493.469 122.794C493.469 125.65 494.911 127.442 496.871 127.442C498.831 127.442 500.273 125.65 500.273 122.794C500.273 119.966 498.831 118.174 496.871 118.174ZM496.871 119.868C497.837 119.868 498.481 120.89 498.481 122.794C498.481 124.726 497.837 125.762 496.871 125.762C495.905 125.762 495.247 124.726 495.247 122.794C495.247 120.89 495.905 119.868 496.871 119.868ZM512.519 119.448V119.924C512.519 121.352 511.609 122.78 509.509 123.354L510.377 124.796C512.855 124.11 514.017 122.15 514.017 119.924V119.448H512.519ZM512.869 119.448V119.924C512.869 122.038 514.031 123.928 516.523 124.586L517.363 123.13C515.277 122.584 514.381 121.24 514.381 119.924V119.448H512.869ZM509.971 118.566V120.022H516.929V118.566H509.971ZM512.519 117.236V119.196H514.381V117.236H512.519ZM517.951 117.278V124.866H519.813V117.278H517.951ZM519.295 120.302V121.828H521.535V120.302H519.295ZM511.385 125.412V130.102H519.813V125.412H511.385ZM517.993 126.868V128.632H513.219V126.868H517.993ZM530.774 117.264V130.228H532.65V117.264H530.774ZM532.16 122.22V123.746H534.442V122.22H532.16ZM527.372 118.608V118.93C527.372 122.444 525.762 124.824 522.36 126.588L523.396 128.002C527.708 125.832 529.192 122.5 529.192 118.608H527.372ZM523.074 118.608V120.106H528.324V118.608H523.074ZM543.681 117.278V130.242H545.529V117.278H543.681ZM545.109 122.332V123.886H547.405V122.332H545.109ZM535.309 119.196V120.68H542.855V119.196H535.309ZM539.103 121.408C537.213 121.408 535.813 122.696 535.813 124.502C535.813 126.308 537.213 127.596 539.103 127.596C540.993 127.596 542.393 126.308 542.393 124.502C542.393 122.696 540.993 121.408 539.103 121.408ZM539.103 122.92C539.985 122.92 540.615 123.508 540.615 124.502C540.615 125.496 539.985 126.084 539.103 126.084C538.221 126.084 537.591 125.496 537.591 124.502C537.591 123.508 538.221 122.92 539.103 122.92ZM538.165 117.488V119.756H540.027V117.488H538.165ZM557.148 117.278V123.83H559.024V117.278H557.148ZM550.372 124.404V125.818H557.176V126.574H550.4V129.22H552.22V127.918H559.024V124.404H550.372ZM550.4 128.716V130.158H559.346V128.716H550.4ZM551.282 117.572V118.552C551.282 120.134 550.358 121.758 548.188 122.416L549.084 123.886C551.618 123.116 552.822 120.946 552.822 118.552V117.572H551.282ZM551.66 117.572V118.552C551.66 120.89 552.822 122.92 555.314 123.648L556.21 122.206C554.096 121.604 553.186 120.092 553.186 118.552V117.572H551.66ZM568.649 119.002C569.939 119.002 570.88 119.28 571.473 119.836C572.065 120.387 572.361 121.148 572.361 122.119C572.361 122.557 572.295 122.976 572.163 123.377C572.031 123.773 571.814 124.127 571.514 124.437C571.217 124.746 570.821 124.993 570.324 125.175C569.827 125.353 569.215 125.441 568.485 125.441H567.576V128.996H565.457V119.002H568.649ZM568.54 120.738H567.576V123.705H568.273C568.67 123.705 569.014 123.653 569.306 123.548C569.597 123.443 569.823 123.279 569.982 123.056C570.142 122.832 570.222 122.545 570.222 122.194C570.222 121.702 570.085 121.338 569.812 121.101C569.538 120.859 569.114 120.738 568.54 120.738ZM580.004 128.996H574.248V119.002H580.004V120.738H576.367V122.933H579.751V124.669H576.367V127.246H580.004V128.996ZM587.852 128.996H582.096V119.002H587.852V120.738H584.215V122.933H587.599V124.669H584.215V127.246H587.852V128.996ZM592.855 119.002C593.762 119.002 594.51 119.111 595.098 119.33C595.69 119.549 596.13 119.879 596.417 120.321C596.704 120.763 596.848 121.322 596.848 121.996C596.848 122.452 596.761 122.851 596.588 123.192C596.415 123.534 596.187 123.824 595.904 124.061C595.622 124.298 595.316 124.491 594.988 124.642L597.928 128.996H595.576L593.19 125.161H592.062V128.996H589.943V119.002H592.855ZM592.705 120.738H592.062V123.438H592.746C593.448 123.438 593.949 123.322 594.25 123.09C594.555 122.853 594.708 122.507 594.708 122.051C594.708 121.577 594.544 121.24 594.216 121.039C593.892 120.839 593.389 120.738 592.705 120.738ZM603.468 118.034V119.504H611.602V118.034H603.468ZM602.138 123.55V125.048H613.856V123.55H602.138ZM606.996 124.6V130.256H608.872V124.6H606.996ZM610.65 118.034V119.182C610.65 120.526 610.65 122.066 610.146 124.236L611.98 124.446C612.484 122.15 612.484 120.582 612.484 119.182V118.034H610.65ZM623.347 117.278V124.866H625.209V117.278H623.347ZM624.467 120.386V121.926H626.931V120.386H624.467ZM616.781 125.37V130.102H625.209V125.37H623.361V126.35H618.615V125.37H616.781ZM618.615 127.75H623.361V128.646H618.615V127.75ZM615.003 118.398V119.868H622.633V118.398H615.003ZM618.825 120.218C616.935 120.218 615.633 121.142 615.633 122.514C615.633 123.886 616.935 124.81 618.825 124.81C620.701 124.81 622.003 123.886 622.003 122.514C622.003 121.142 620.701 120.218 618.825 120.218ZM618.825 121.576C619.651 121.576 620.225 121.912 620.225 122.514C620.225 123.13 619.651 123.452 618.825 123.452C617.985 123.452 617.425 123.13 617.425 122.514C617.425 121.912 617.985 121.576 618.825 121.576ZM617.887 117.18V119.224H619.749V117.18H617.887ZM636.856 117.278V130.242H638.718V117.278H636.856ZM628.568 118.51V126.56H630.416V118.51H628.568ZM628.568 125.468V127.05H629.716C631.69 127.05 633.832 126.91 636.058 126.448L635.848 124.908C633.706 125.328 631.606 125.468 629.716 125.468H628.568ZM649.049 117.264V130.27H650.925V117.264H649.049ZM650.505 122.066V123.592H652.801V122.066H650.505ZM641.265 125.608V127.148H642.357C644.611 127.148 646.389 127.092 648.349 126.742L648.167 125.202C646.263 125.538 644.541 125.608 642.357 125.608H641.265ZM641.265 118.468V126.35H643.113V119.966H647.313V118.468H641.265ZM653.88 128.019C653.88 127.59 653.996 127.289 654.229 127.116C654.465 126.943 654.75 126.856 655.083 126.856C655.407 126.856 655.685 126.943 655.917 127.116C656.154 127.289 656.272 127.59 656.272 128.019C656.272 128.429 656.154 128.725 655.917 128.907C655.685 129.09 655.407 129.181 655.083 129.181C654.75 129.181 654.465 129.09 654.229 128.907C653.996 128.725 653.88 128.429 653.88 128.019Z" fill="#666666"/>
<path d="M938.5 124.996C938.5 125.659 938.237 126.295 937.768 126.764C937.299 127.233 936.663 127.496 936 127.496C935.337 127.496 934.701 127.233 934.232 126.764C933.763 126.295 933.5 125.659 933.5 124.996C933.5 124.333 933.763 123.697 934.232 123.228C934.701 122.759 935.337 122.496 936 122.496C936.663 122.496 937.299 122.759 937.768 123.228C938.237 123.697 938.5 124.333 938.5 124.996Z" fill="#666666"/>
<path d="M928 124.996C928 124.996 931 119.496 936 119.496C941 119.496 944 124.996 944 124.996C944 124.996 941 130.496 936 130.496C931 130.496 928 124.996 928 124.996ZM936 128.496C936.928 128.496 937.818 128.127 938.475 127.471C939.131 126.815 939.5 125.924 939.5 124.996C939.5 124.068 939.131 123.178 938.475 122.521C937.818 121.865 936.928 121.496 936 121.496C935.072 121.496 934.182 121.865 933.525 122.521C932.869 123.178 932.5 124.068 932.5 124.996C932.5 125.924 932.869 126.815 933.525 127.471C934.182 128.127 935.072 128.496 936 128.496Z" fill="#666666"/>
<g clip-path="url(#clip3_213_13109)">
<path d="M962 118.703V127.211H964.462V129.673L968.3 127.211H973.947V118.703H962ZM974.51 120.573V121.644H974.929V127.711H972.864V129.333L970.469 127.797L970.337 127.711H968.531L966.862 128.782H970.021L973.11 130.763L973.935 131.291V128.782H976V120.573H974.51Z" fill="#666666"/>
</g>
<path d="M1040 362.996V365.996H1043V362.996H1040ZM0 362.996H-3V365.996H0V362.996ZM1037 62.9961V362.996H1043V62.9961H1037ZM1040 359.996H0V365.996H1040V359.996ZM3 362.996V62.9961H-3V362.996H3Z" fill="#FB9749" mask="url(#path-7-inside-3_213_13109)"/>
<defs>
<clipPath id="clip0_213_13109">
<rect width="14" height="14" fill="white" transform="translate(962 294.996)"/>
</clipPath>
<clipPath id="clip1_213_13109">
<rect width="14" height="14" fill="white" transform="translate(962 235.996)"/>
</clipPath>
<clipPath id="clip2_213_13109">
<rect width="14" height="14" fill="white" transform="translate(962 176.996)"/>
</clipPath>
<clipPath id="clip3_213_13109">
<rect width="14" height="14" fill="white" transform="translate(962 117.996)"/>
</clipPath>
</defs>
</svg>
