<svg width="30" height="31" viewBox="0 0 30 31" fill="none" xmlns="http://www.w3.org/2000/svg">
<path d="M12.1436 15.998C13.5823 15.998 14.6436 14.9368 14.6436 13.498C14.6436 12.0593 13.5823 10.998 12.1436 10.998C10.7048 10.998 9.64355 12.0593 9.64355 13.498C9.64355 14.9368 10.7036 15.998 12.1436 15.998Z" fill="#888888"/>
<path d="M25 5.99805H5C3.62125 5.99805 2.5 7.0493 2.5 8.3418V23.6543C2.5 24.9468 3.62125 25.998 5 25.998H25C26.3788 25.998 27.5 24.9468 27.5 23.6543V8.3418C27.5 7.0493 26.3788 5.99805 25 5.99805ZM25 23.498L5 23.4843V8.49805L25 8.5118V23.498Z" fill="#888888"/>
<path d="M17.5 12.248H22.5V14.748H17.5V12.248ZM18.75 17.248H22.5V19.748H18.75V17.248ZM16.7875 20.418C16.7875 18.7005 14.6925 16.9355 12.1438 16.9355C9.595 16.9355 7.5 18.7005 7.5 20.418V20.998H16.7875V20.418Z" fill="#888888"/>
</svg>
