<svg width="180" height="181" viewBox="0 0 180 181" fill="none" xmlns="http://www.w3.org/2000/svg">
<rect y="0.996094" width="180" height="180" rx="20" fill="white"/>
<path d="M41.877 47.9961V33.7188H44.9043V47.9961H41.877ZM56.9258 44.0312C56.9258 44.8776 56.7207 45.6133 56.3105 46.2383C55.9004 46.8633 55.3014 47.3451 54.5137 47.6836C53.7324 48.0221 52.7819 48.1914 51.6621 48.1914C51.1673 48.1914 50.6823 48.1589 50.207 48.0938C49.7383 48.0286 49.2858 47.9342 48.8496 47.8105C48.4199 47.6803 48.0098 47.5208 47.6191 47.332V44.5195C48.2962 44.819 48.9993 45.0892 49.7285 45.3301C50.4577 45.571 51.1803 45.6914 51.8965 45.6914C52.3913 45.6914 52.7884 45.6263 53.0879 45.4961C53.3939 45.3659 53.6152 45.1868 53.752 44.959C53.8887 44.7311 53.957 44.4707 53.957 44.1777C53.957 43.8197 53.8366 43.5137 53.5957 43.2598C53.3548 43.0059 53.0228 42.7682 52.5996 42.5469C52.1829 42.3255 51.7109 42.0879 51.1836 41.834C50.8516 41.6777 50.4902 41.4889 50.0996 41.2676C49.709 41.0397 49.3379 40.763 48.9863 40.4375C48.6348 40.112 48.3451 39.7181 48.1172 39.2559C47.8958 38.7871 47.7852 38.2272 47.7852 37.5762C47.7852 36.7233 47.9805 35.9941 48.3711 35.3887C48.7617 34.7832 49.3184 34.321 50.041 34.002C50.7702 33.6764 51.6296 33.5137 52.6191 33.5137C53.3613 33.5137 54.0677 33.6016 54.7383 33.7773C55.4154 33.9466 56.1217 34.194 56.8574 34.5195L55.8809 36.873C55.2233 36.6061 54.6341 36.401 54.1133 36.2578C53.5924 36.1081 53.0618 36.0332 52.5215 36.0332C52.1439 36.0332 51.8216 36.0951 51.5547 36.2188C51.2878 36.3359 51.0859 36.5052 50.9492 36.7266C50.8125 36.9414 50.7441 37.1921 50.7441 37.4785C50.7441 37.8171 50.8418 38.1035 51.0371 38.3379C51.2389 38.5658 51.5384 38.7871 51.9355 39.002C52.3392 39.2168 52.8405 39.4674 53.4395 39.7539C54.1686 40.099 54.7904 40.4603 55.3047 40.8379C55.8255 41.209 56.2259 41.6484 56.5059 42.1562C56.7858 42.6576 56.9258 43.2826 56.9258 44.0312ZM65.0215 47.9961H61.9941V36.2383H58.1172V33.7188H68.8984V36.2383H65.0215V47.9961ZM69.6016 52.1953C69.2109 52.1953 68.8691 52.1725 68.5762 52.127C68.2767 52.0879 68.0228 52.0391 67.8145 51.9805V49.4609C68.0228 49.5065 68.2474 49.5488 68.4883 49.5879C68.7227 49.6335 68.9733 49.6562 69.2402 49.6562C69.5918 49.6562 69.9076 49.5879 70.1875 49.4512C70.4674 49.321 70.6888 49.0703 70.8516 48.6992C71.0143 48.3281 71.0957 47.7943 71.0957 47.0977V33.7188H74.123V47.0781C74.123 48.3021 73.931 49.2884 73.5469 50.0371C73.1693 50.7923 72.6387 51.3392 71.9551 51.6777C71.278 52.0228 70.4935 52.1953 69.6016 52.1953Z" fill="black"/>
<path d="M48.7861 79.5781L48.373 81.6172H50.6406V83.4277H48.0303L47.3535 86.9961H45.4199L46.1055 83.4277H44.4004L43.7324 86.9961H41.8428L42.4932 83.4277H40.4014V81.6172H42.8359L43.249 79.5781H41.0342V77.7412H43.5742L44.251 74.1641H46.1758L45.499 77.7412H47.2393L47.9248 74.1641H49.8145L49.1289 77.7412H51.2383V79.5781H48.7861ZM44.7432 81.6172H46.4658L46.8789 79.5781H45.1562L44.7432 81.6172ZM57.0384 80.4981V82.4061H72.1044V80.4981H57.0384ZM63.3564 78.1581V81.3621H65.7504V78.1581H63.3564ZM58.8564 86.4021V88.3101H70.4124V86.4021H58.8564ZM58.8564 83.4681V87.0501H61.2504V83.4681H58.8564ZM64.5804 72.3441C60.9444 72.3441 58.5504 73.6761 58.5504 75.7821C58.5504 77.9241 60.9444 79.2201 64.5804 79.2201C68.1984 79.2201 70.6104 77.9241 70.6104 75.7821C70.6104 73.6761 68.1984 72.3441 64.5804 72.3441ZM64.5804 74.2521C66.8304 74.2521 68.1444 74.7741 68.1444 75.7821C68.1444 76.8081 66.8304 77.3121 64.5804 77.3121C62.3304 77.3121 61.0164 76.8081 61.0164 75.7821C61.0164 74.7741 62.3304 74.2521 64.5804 74.2521ZM84.289 71.9121V88.6341H86.665V71.9121H84.289ZM86.125 78.2121V80.1921H89.077V78.2121H86.125ZM74.281 82.8021V84.7641H75.685C78.583 84.7641 80.869 84.6561 83.389 84.2061L83.155 82.2801C80.707 82.7121 78.511 82.8021 75.685 82.8021H74.281ZM74.263 73.3341V75.2421H79.555V77.8881H74.281V83.5401H76.657V79.7961H81.931V73.3341H74.263ZM101.604 71.9481V83.9181H104.016V71.9481H101.604ZM92.9095 86.4021V88.3101H104.43V86.4021H92.9095ZM92.9095 82.7121V87.1761H95.3035V82.7121H92.9095ZM94.9435 72.9921C92.3875 72.9921 90.4075 74.7561 90.4075 77.2221C90.4075 79.6701 92.3875 81.4521 94.9435 81.4521C97.4995 81.4521 99.4615 79.6701 99.4615 77.2221C99.4615 74.7561 97.4995 72.9921 94.9435 72.9921ZM94.9435 75.0621C96.1675 75.0621 97.1215 75.8541 97.1215 77.2221C97.1215 78.5721 96.1675 79.3641 94.9435 79.3641C93.7015 79.3641 92.7475 78.5721 92.7475 77.2221C92.7475 75.8541 93.7015 75.0621 94.9435 75.0621Z" fill="#FB9749"/>
<path d="M49.2275 108.578L48.8145 110.617H51.082V112.428H48.4717L47.7949 115.996H45.8613L46.5469 112.428H44.8418L44.1738 115.996H42.2842L42.9346 112.428H40.8428V110.617H43.2773L43.6904 108.578H41.4756V106.741H44.0156L44.6924 103.164H46.6172L45.9404 106.741H47.6807L48.3662 103.164H50.2559L49.5703 106.741H51.6797V108.578H49.2275ZM45.1846 110.617H46.9072L47.3203 108.578H45.5977L45.1846 110.617ZM61.5298 102.64V103.684C61.5298 105.772 60.3238 107.95 57.5518 108.85L58.7758 110.704C61.9798 109.678 63.5098 106.834 63.5098 103.684V102.64H61.5298ZM62.0158 102.64V103.684C62.0158 106.69 63.5278 109.426 66.6598 110.416L67.8838 108.562C65.1658 107.698 63.9778 105.664 63.9778 103.684V102.64H62.0158ZM68.9278 100.93V110.974H71.3398V100.93H68.9278ZM59.9638 111.712V113.62H68.9278V117.598H71.3398V111.712H59.9638ZM58.1818 101.902V103.792H67.2538V101.902H58.1818ZM82.5524 103.36V105.268H86.6564V103.36H82.5524ZM85.5944 100.93V109.39H87.9884V100.93H85.5944ZM76.9724 110.092V111.928H85.6124V112.846H77.0084V116.662H79.3664V114.574H87.9884V110.092H76.9724ZM77.0084 115.564V117.418H88.4564V115.564H77.0084ZM77.8544 101.47V102.658C77.8544 104.782 76.6844 106.816 73.9124 107.644L75.1364 109.534C78.3224 108.526 79.7984 105.808 79.7984 102.658V101.47H77.8544ZM78.3224 101.47V102.658C78.3224 105.646 79.7444 108.22 82.7864 109.21L84.0104 107.356C81.3824 106.564 80.2664 104.638 80.2664 102.658V101.47H78.3224ZM94.449 102.586V103.648C94.449 105.736 93.261 107.932 90.507 108.832L91.713 110.722C94.917 109.678 96.393 106.78 96.393 103.648V102.586H94.449ZM94.953 102.586V103.648C94.953 106.6 96.375 109.372 99.471 110.398L100.641 108.526C98.013 107.644 96.879 105.592 96.879 103.648V102.586H94.953ZM99.669 104.908V106.852H102.837V104.908H99.669ZM91.155 101.848V103.738H100.119V101.848H91.155ZM93.189 111.604V113.512H102.153V117.598H104.547V111.604H93.189ZM102.153 100.93V110.848H104.547V100.93H102.153ZM114.698 101.758C111.188 101.758 108.47 103.684 108.47 106.582C108.47 109.498 111.188 111.406 114.698 111.406C118.208 111.406 120.926 109.498 120.926 106.582C120.926 103.684 118.208 101.758 114.698 101.758ZM114.698 103.702C116.966 103.702 118.586 104.782 118.586 106.582C118.586 108.364 116.966 109.444 114.698 109.444C112.43 109.444 110.81 108.364 110.81 106.582C110.81 104.782 112.43 103.702 114.698 103.702ZM107.174 113.638V115.6H122.258V113.638H107.174ZM123.732 113.818V115.762H138.816V113.818H123.732ZM130.05 110.668V114.61H132.444V110.668H130.05ZM125.424 102.01V103.9H134.748V105.682H125.46V110.362H127.836V107.554H137.124V102.01H125.424ZM125.46 109.408V111.334H137.502V109.408H125.46Z" fill="#FB9749"/>
<path d="M48.8896 137.578L48.4766 139.617H50.7441V141.428H48.1338L47.457 144.996H45.5234L46.209 141.428H44.5039L43.8359 144.996H41.9463L42.5967 141.428H40.5049V139.617H42.9395L43.3525 137.578H41.1377V135.741H43.6777L44.3545 132.164H46.2793L45.6025 135.741H47.3428L48.0283 132.164H49.918L49.2324 135.741H51.3418V137.578H48.8896ZM44.8467 139.617H46.5693L46.9824 137.578H45.2598L44.8467 139.617ZM63.5679 134.322V136.23H66.9519V134.322H63.5679ZM63.4779 138.48V140.388H66.8799V138.48H63.4779ZM69.2199 129.93V146.598H71.5059V129.93H69.2199ZM65.7819 130.29V145.86H68.0139V130.29H65.7819ZM62.0199 131.892V132.378C62.0199 136.41 60.6699 139.182 56.9079 141.468L58.2579 143.142C62.9019 140.406 64.3239 136.626 64.3239 131.892H62.0199ZM57.8619 131.892V133.8H62.8299V131.892H57.8619ZM74.2585 131.154V132.864H84.0505V131.154H74.2585ZM79.1545 133.26C76.6705 133.26 75.0145 134.25 75.0145 135.762C75.0145 137.292 76.6705 138.264 79.1545 138.264C81.6385 138.264 83.2945 137.292 83.2945 135.762C83.2945 134.25 81.6385 133.26 79.1545 133.26ZM79.1545 134.844C80.2885 134.844 81.0085 135.15 81.0085 135.762C81.0085 136.356 80.2885 136.68 79.1545 136.68C78.0385 136.68 77.3005 136.356 77.3005 135.762C77.3005 135.15 78.0385 134.844 79.1545 134.844ZM77.9485 129.822V132.018H80.3605V129.822H77.9485ZM77.9485 137.382V139.704H80.3605V137.382H77.9485ZM85.1845 129.948V141.234H87.5965V129.948H85.1845ZM76.0765 141.882V143.718H85.1845V146.598H87.5965V141.882H76.0765ZM74.0785 140.91C77.0125 140.91 80.8465 140.856 84.3745 140.244L84.1945 138.642C80.7925 139.074 76.7965 139.092 73.7905 139.092L74.0785 140.91ZM98.6788 132.63V133.224C98.6788 134.826 97.4908 136.392 94.7908 137.004L95.8168 138.84C99.0568 138.102 100.605 135.852 100.605 133.224V132.63H98.6788ZM99.1468 132.63V133.224C99.1468 135.726 100.731 137.868 103.953 138.552L104.961 136.734C102.297 136.194 101.073 134.7 101.073 133.224V132.63H99.1468ZM95.4028 131.298V133.188H104.349V131.298H95.4028ZM98.6788 129.876V132.36H101.073V129.876H98.6788ZM103.935 133.8V135.708H108.057V133.8H103.935ZM106.491 129.93V138.552H108.885V129.93H106.491ZM97.8688 139.182V141H106.509V141.954H97.8868V145.734H100.263V143.664H108.885V139.182H97.8688ZM97.8868 144.672V146.49H109.353V144.672H97.8868ZM123.085 129.912V146.634H125.479V129.912H123.085ZM120.169 135.744V137.67H123.643V135.744H120.169ZM115.345 132.558V134.034C115.345 137.13 114.031 140.316 111.241 141.63L112.645 143.52C115.759 141.99 117.235 138.102 117.235 134.034V132.558H115.345ZM115.903 132.558V134.034C115.903 137.976 117.343 141.702 120.475 143.178L121.861 141.306C119.071 140.046 117.775 136.968 117.775 134.034V132.558H115.903ZM111.925 131.532V133.458H121.195V131.532H111.925ZM139.482 129.93V146.598H141.894V129.93H139.482ZM128.412 132.432V134.322H138.276V132.432H128.412ZM133.362 135.24C130.896 135.24 129.096 136.896 129.096 139.218C129.096 141.54 130.896 143.196 133.362 143.196C135.828 143.196 137.646 141.54 137.646 139.218C137.646 136.896 135.828 135.24 133.362 135.24ZM133.362 137.184C134.514 137.184 135.342 137.94 135.342 139.218C135.342 140.496 134.514 141.252 133.362 141.252C132.21 141.252 131.382 140.496 131.382 139.218C131.382 137.94 132.21 137.184 133.362 137.184ZM132.138 130.164V133.602H134.55V130.164H132.138Z" fill="#FB9749"/>
</svg>
