<svg width="409" height="180" viewBox="0 0 409 180" fill="none" xmlns="http://www.w3.org/2000/svg">
<rect x="0.5" width="408" height="180" rx="20" fill="white"/>
<path d="M53.2278 30.28V44.12H55.8878V30.28H53.2278ZM55.1278 35.92V38.1H58.3478V35.92H55.1278ZM41.3078 32.2V34.28H52.2078V32.2H41.3078ZM46.7678 34.94C44.0878 34.94 42.2078 36.4 42.2078 38.52C42.2078 40.64 44.0878 42.08 46.7678 42.08C49.4278 42.08 51.3078 40.64 51.3078 38.52C51.3078 36.4 49.4278 34.94 46.7678 34.94ZM46.7678 36.96C47.9478 36.96 48.7678 37.52 48.7678 38.52C48.7678 39.52 47.9478 40.06 46.7678 40.06C45.5878 40.06 44.7678 39.52 44.7678 38.52C44.7678 37.52 45.5878 36.96 46.7678 36.96ZM45.4278 30.24V33.22H48.0878V30.24H45.4278ZM43.9478 46.34V48.46H56.5478V46.34H43.9478ZM43.9478 43.08V47.26H46.6078V43.08H43.9478ZM71.9416 39.08V41.66H74.6016V39.08H71.9416ZM64.9016 37.62V39.7H81.6416V37.62H64.9016ZM66.8216 40.86V42.8H77.0016V43.8H66.8416V47.24H69.4616V45.62H79.6216V40.86H66.8216ZM66.8416 46.68V48.66H80.1016V46.68H66.8416ZM71.6816 31.56V32.02C71.6816 33.36 69.8616 34.84 65.6416 35.12L66.4616 37.12C71.3816 36.76 74.0016 34.66 74.0016 32.02V31.56H71.6816ZM72.5416 31.56V32.02C72.5416 34.68 75.1816 36.76 80.1016 37.12L80.9216 35.12C76.6816 34.84 74.8616 33.36 74.8616 32.02V31.56H72.5416ZM66.4216 30.76V32.82H80.1416V30.76H66.4216ZM88.5153 44.44V46.62H105.275V44.44H88.5153ZM95.4753 40.32V45.02H98.1153V40.32H95.4753ZM95.3753 31.28V32.62C95.3753 35.18 93.1153 38.02 88.8953 38.7L89.9953 40.92C94.8353 40.04 97.6953 36.56 97.6953 32.62V31.28H95.3753ZM95.8953 31.28V32.62C95.8953 36.62 98.7553 40.02 103.615 40.92L104.715 38.7C100.475 38.02 98.2153 35.24 98.2153 32.62V31.28H95.8953ZM120.214 30.26V48.78H122.754V30.26H120.214ZM117.874 37.24V39.36H120.934V37.24H117.874ZM112.354 32.52V33.08C112.354 37.52 110.874 40.64 106.654 43.14L108.194 44.98C113.374 41.96 114.894 37.74 114.894 32.52H112.354ZM107.594 32.52V34.66H113.134V32.52H107.594ZM116.114 30.74V47.98H118.594V30.74H116.114Z" fill="black"/>
<path d="M45.391 68.086C42.853 68.086 41.017 70.39 41.017 74.026C41.017 77.698 42.853 80.002 45.391 80.002C47.929 80.002 49.765 77.698 49.765 74.026C49.765 70.39 47.929 68.086 45.391 68.086ZM45.391 70.264C46.633 70.264 47.479 71.578 47.479 74.026C47.479 76.51 46.633 77.842 45.391 77.842C44.149 77.842 43.321 76.51 43.321 74.026C43.321 71.578 44.149 70.264 45.391 70.264ZM51.583 66.934V83.602H53.995V66.934H51.583ZM53.455 73.216V75.196H56.407V73.216H53.455ZM61.2296 69.562V71.434C61.2296 74.17 59.8796 77.284 57.1256 78.58L58.4756 80.47C61.5356 79.03 63.1196 75.196 63.1196 71.434V69.562H61.2296ZM61.7336 69.562V71.434C61.7336 74.98 63.2816 78.634 66.3416 80.056L67.6556 78.166C64.9196 76.906 63.6236 73.954 63.6236 71.434V69.562H61.7336ZM57.7736 68.536V70.498H66.9176V68.536H57.7736ZM68.1416 66.934V83.602H70.5536V66.934H68.1416ZM70.0136 73.288V75.268H72.9656V73.288H70.0136ZM77.7882 69.562V71.434C77.7882 74.17 76.4382 77.284 73.6842 78.58L75.0342 80.47C78.0942 79.03 79.6782 75.196 79.6782 71.434V69.562H77.7882ZM78.2922 69.562V71.434C78.2922 74.98 79.8402 78.634 82.9002 80.056L84.2142 78.166C81.4782 76.906 80.1822 73.954 80.1822 71.434V69.562H78.2922ZM74.3322 68.536V70.498H83.4762V68.536H74.3322ZM84.7002 66.934V83.602H87.1122V66.934H84.7002ZM86.5722 73.288V75.268H89.5242V73.288H86.5722ZM94.3468 69.562V71.434C94.3468 74.17 92.9968 77.284 90.2428 78.58L91.5928 80.47C94.6528 79.03 96.2368 75.196 96.2368 71.434V69.562H94.3468ZM94.8508 69.562V71.434C94.8508 74.98 96.3988 78.634 99.4588 80.056L100.773 78.166C98.0368 76.906 96.7408 73.954 96.7408 71.434V69.562H94.8508ZM90.8908 68.536V70.498H100.035V68.536H90.8908ZM101.259 66.934V83.602H103.671V66.934H101.259ZM103.131 73.288V75.268H106.083V73.288H103.131ZM110.905 69.562V71.434C110.905 74.17 109.555 77.284 106.801 78.58L108.151 80.47C111.211 79.03 112.795 75.196 112.795 71.434V69.562H110.905ZM111.409 69.562V71.434C111.409 74.98 112.957 78.634 116.017 80.056L117.331 78.166C114.595 76.906 113.299 73.954 113.299 71.434V69.562H111.409ZM107.449 68.536V70.498H116.593V68.536H107.449ZM117.817 66.934V83.602H120.229V66.934H117.817ZM119.689 73.288V75.268H122.641V73.288H119.689ZM127.464 69.562V71.434C127.464 74.17 126.114 77.284 123.36 78.58L124.71 80.47C127.77 79.03 129.354 75.196 129.354 71.434V69.562H127.464ZM127.968 69.562V71.434C127.968 74.98 129.516 78.634 132.576 80.056L133.89 78.166C131.154 76.906 129.858 73.954 129.858 71.434V69.562H127.968ZM124.008 68.536V70.498H133.152V68.536H124.008ZM134.376 66.934V83.602H136.788V66.934H134.376ZM136.248 73.288V75.268H139.2V73.288H136.248ZM144.023 69.562V71.434C144.023 74.17 142.673 77.284 139.919 78.58L141.269 80.47C144.329 79.03 145.913 75.196 145.913 71.434V69.562H144.023ZM144.527 69.562V71.434C144.527 74.98 146.075 78.634 149.135 80.056L150.449 78.166C147.713 76.906 146.417 73.954 146.417 71.434V69.562H144.527ZM140.567 68.536V70.498H149.711V68.536H140.567ZM150.935 66.934V83.602H153.347V66.934H150.935ZM152.807 73.288V75.268H155.759V73.288H152.807ZM160.581 69.562V71.434C160.581 74.17 159.231 77.284 156.477 78.58L157.827 80.47C160.887 79.03 162.471 75.196 162.471 71.434V69.562H160.581ZM161.085 69.562V71.434C161.085 74.98 162.633 78.634 165.693 80.056L167.007 78.166C164.271 76.906 162.975 73.954 162.975 71.434V69.562H161.085ZM157.125 68.536V70.498H166.269V68.536H157.125ZM167.493 66.934V83.602H169.905V66.934H167.493ZM169.365 73.288V75.268H172.317V73.288H169.365ZM181.924 76.798V79.498H184.318V76.798H181.924ZM188.926 66.934V83.602H191.338V66.934H188.926ZM190.492 73.702V75.682H193.426V73.702H190.492ZM178.18 80.83C180.988 80.83 184.768 80.83 188.278 80.146L188.098 78.418C184.732 78.886 180.772 78.904 177.892 78.904L178.18 80.83ZM178.198 68.77V70.642H188.008V68.77H178.198ZM183.13 71.308C180.736 71.308 179.062 72.568 179.062 74.422C179.062 76.294 180.736 77.554 183.13 77.554C185.506 77.554 187.198 76.294 187.198 74.422C187.198 72.568 185.506 71.308 183.13 71.308ZM183.13 73.108C184.21 73.108 184.93 73.576 184.93 74.422C184.93 75.286 184.21 75.754 183.13 75.754C182.032 75.754 181.33 75.286 181.33 74.422C181.33 73.576 182.032 73.108 183.13 73.108ZM181.924 67.024V70.174H184.318V67.024H181.924ZM206.06 66.916V83.638H208.472V66.916H206.06ZM199.49 68.086C196.97 68.086 195.116 70.39 195.116 74.026C195.116 77.698 196.97 80.002 199.49 80.002C202.01 80.002 203.864 77.698 203.864 74.026C203.864 70.39 202.01 68.086 199.49 68.086ZM199.49 70.264C200.732 70.264 201.56 71.578 201.56 74.026C201.56 76.51 200.732 77.842 199.49 77.842C198.248 77.842 197.402 76.51 197.402 74.026C197.402 71.578 198.248 70.264 199.49 70.264ZM212.107 74.404V76.294H213.529C217.039 76.294 219.145 76.258 221.485 75.862L221.251 74.008C218.965 74.368 216.967 74.404 213.529 74.404H212.107ZM212.107 68.086V75.178H214.483V69.976H220.117V68.086H212.107ZM213.745 71.254V73.09H219.631V71.254H213.745ZM222.637 66.952V77.014H225.049V66.952H222.637ZM219.415 77.266C215.887 77.266 213.709 78.436 213.709 80.434C213.709 82.45 215.887 83.602 219.415 83.602C222.925 83.602 225.121 82.45 225.121 80.434C225.121 78.436 222.925 77.266 219.415 77.266ZM219.415 79.102C221.575 79.102 222.727 79.534 222.727 80.434C222.727 81.352 221.575 81.784 219.415 81.784C217.237 81.784 216.103 81.352 216.103 80.434C216.103 79.534 217.237 79.102 219.415 79.102ZM236.167 77.05V77.608C236.167 79.228 235.249 80.884 233.071 81.622L234.241 83.368C236.851 82.432 237.967 80.128 237.967 77.608V77.05H236.167ZM236.779 77.05V77.608C236.779 80.056 237.733 82.54 240.379 83.53L241.333 81.766C239.299 80.92 238.489 79.228 238.489 77.608V77.05H236.779ZM242.251 77.05V77.608C242.251 79.084 241.423 80.848 239.389 81.766L240.379 83.53C242.971 82.504 243.961 79.912 243.961 77.608V77.05H242.251ZM242.809 77.05V77.608C242.809 80.236 243.889 82.468 246.535 83.368L247.705 81.622C245.509 80.938 244.609 79.336 244.609 77.608V77.05H242.809ZM243.871 66.952V76.366H246.283V66.952H243.871ZM237.211 67.798C234.619 67.798 232.675 69.454 232.675 71.794C232.675 74.116 234.619 75.772 237.211 75.772C239.803 75.772 241.729 74.116 241.729 71.794C241.729 69.454 239.803 67.798 237.211 67.798ZM237.211 69.778C238.471 69.778 239.389 70.516 239.389 71.794C239.389 73.054 238.471 73.792 237.211 73.792C235.951 73.792 235.015 73.054 235.015 71.794C235.015 70.516 235.951 69.778 237.211 69.778ZM261.06 66.934V83.602H263.346V66.934H261.06ZM254.454 73.324V75.214H258.018V73.324H254.454ZM257.55 67.294V82.864H259.782V67.294H257.55ZM253.914 68.896V69.382C253.914 73.414 252.564 76.186 248.766 78.472L250.116 80.146C254.796 77.428 256.218 73.648 256.218 68.896H253.914ZM249.702 68.896V70.804H254.67V68.896H249.702ZM273.888 68.194V69.184C273.888 71.092 272.7 73.036 269.91 73.828L271.062 75.7C274.32 74.782 275.832 72.154 275.832 69.184V68.194H273.888ZM274.374 68.194V69.184C274.374 71.956 275.886 74.458 279.054 75.34L280.17 73.468C277.47 72.73 276.318 70.93 276.318 69.184V68.194H274.374ZM270.558 67.672V69.58H279.576V67.672H270.558ZM280.944 66.934V75.448H283.338V66.934H280.944ZM282.366 70.192V72.136H285.534V70.192H282.366ZM272.322 76.114V77.914H280.98V78.886H272.358V82.684H274.734V80.578H283.338V76.114H272.322ZM272.358 81.64V83.44H283.824V81.64H272.358ZM286.757 69.436V71.344H294.731V69.436H286.757ZM290.771 72.082C288.665 72.082 287.117 73.72 287.117 76.06C287.117 78.382 288.665 80.02 290.771 80.02C292.895 80.02 294.425 78.382 294.425 76.06C294.425 73.72 292.895 72.082 290.771 72.082ZM290.771 74.08C291.671 74.08 292.319 74.8 292.319 76.06C292.319 77.32 291.671 78.022 290.771 78.022C289.871 78.022 289.241 77.32 289.241 76.06C289.241 74.8 289.871 74.08 290.771 74.08ZM298.817 66.934V83.602H301.103V66.934H298.817ZM296.819 73.702V75.628H299.573V73.702H296.819ZM295.325 67.24V82.9H297.557V67.24H295.325ZM289.601 67.384V70.642H291.959V67.384H289.601ZM305.259 67.24V73.432H316.491V67.24H314.115V68.572H307.617V67.24H305.259ZM307.617 70.372H314.115V71.56H307.617V70.372ZM305.097 77.374V83.422H316.599V77.374H314.223V78.526H307.455V77.374H305.097ZM307.455 80.326H314.223V81.55H307.455V80.326ZM303.333 74.638V76.528H318.399V74.638H303.333ZM309.651 72.91V75.376H312.045V72.91H309.651ZM323.96 68.212V70.642C323.96 73.882 322.592 77.086 319.694 78.346L321.116 80.326C324.428 78.796 325.904 74.926 325.904 70.642V68.212H323.96ZM324.428 68.212V70.642C324.428 74.746 325.904 78.454 329.126 79.93L330.53 78.004C327.686 76.78 326.372 73.72 326.372 70.642V68.212H324.428ZM331.322 66.916V83.638H333.734V66.916H331.322ZM347.106 66.916V83.638H349.518V66.916H347.106ZM348.978 73.09V75.052H351.93V73.09H348.978ZM337.098 77.644V79.624H338.502C341.4 79.624 343.686 79.552 346.206 79.102L345.972 77.122C343.524 77.554 341.31 77.644 338.502 77.644H337.098ZM337.098 68.464V78.598H339.474V70.39H344.874V68.464H337.098Z" fill="#888888"/>
<path d="M47.9725 104.32V104.86C47.9725 106.76 46.0125 108.84 41.9325 109.34L42.9125 111.42C47.6125 110.78 50.2725 108.12 50.2725 104.86V104.32H47.9725ZM48.7325 104.32V104.86C48.7325 108.12 51.3925 110.78 56.1125 111.42L57.0725 109.34C52.9925 108.84 51.0325 106.76 51.0325 104.86V104.32H48.7325ZM48.1125 114V120.8H50.7525V114H48.1125ZM41.1325 112.48V114.6H57.8725V112.48H41.1325ZM42.6125 103.2V105.3H56.3525V103.2H42.6125ZM63.2109 111.66V116.86H65.8509V111.66H63.2109ZM69.9309 111.66V116.86H72.5909V111.66H69.9309ZM59.5309 116.48V118.64H76.2909V116.48H59.5309ZM67.8909 103.16C63.8909 103.16 60.9709 105.12 60.9709 108.14C60.9709 111.16 63.8909 113.1 67.8909 113.1C71.8709 113.1 74.8109 111.16 74.8109 108.14C74.8109 105.12 71.8709 103.16 67.8909 103.16ZM67.8909 105.24C70.4709 105.24 72.1909 106.3 72.1909 108.14C72.1909 109.96 70.4709 111.04 67.8909 111.04C65.3109 111.04 63.5909 109.96 63.5909 108.14C63.5909 106.3 65.3109 105.24 67.8909 105.24ZM95.1447 102.26V113.14H97.8047V102.26H95.1447ZM96.8647 106.62V108.8H100.125V106.62H96.8647ZM85.3447 113.82V115.58H95.1847V116.38H85.3647V119.5H88.0047V118.02H97.8047V113.82H85.3447ZM85.3647 118.9V120.66H98.4447V118.9H85.3647ZM87.3047 109.66V112.3H89.9647V109.66H87.3047ZM83.1647 112.98C86.3647 112.98 90.6247 112.96 94.5247 112.28L94.3247 110.66C90.5847 111.16 86.1647 111.18 82.8847 111.18L83.1647 112.98ZM83.3647 103.42V105.18H93.8647V103.42H83.3647ZM88.6247 105.52C85.8647 105.52 84.1047 106.42 84.1047 107.94C84.1047 109.48 85.8647 110.38 88.6247 110.38C91.3647 110.38 93.1247 109.48 93.1247 107.94C93.1247 106.42 91.3647 105.52 88.6247 105.52ZM88.6247 107.16C89.8847 107.16 90.6047 107.4 90.6047 107.94C90.6047 108.48 89.8847 108.74 88.6247 108.74C87.3647 108.74 86.6247 108.48 86.6247 107.94C86.6247 107.4 87.3647 107.16 88.6247 107.16ZM87.3047 102.1V104.4H89.9647V102.1H87.3047ZM101.523 110.96V113.08H118.283V110.96H101.523ZM108.583 108.18V111.78H111.223V108.18H108.583ZM103.543 107.34V109.44H116.383V107.34H103.543ZM103.543 103.06V108.68H106.183V105.14H116.283V103.06H103.543ZM109.843 114C105.843 114 103.403 115.22 103.403 117.4C103.403 119.58 105.843 120.8 109.843 120.8C113.843 120.8 116.263 119.58 116.263 117.4C116.263 115.22 113.843 114 109.843 114ZM109.843 116C112.323 116 113.583 116.46 113.583 117.4C113.583 118.36 112.323 118.78 109.843 118.78C107.363 118.78 106.103 118.36 106.103 117.4C106.103 116.46 107.363 116 109.843 116Z" fill="black"/>
<path d="M52.7431 138.934V155.602H55.1551V138.934H52.7431ZM47.8291 140.662V141.094C47.8291 145.558 46.1011 148.582 41.3131 150.886L42.5551 152.794C48.4771 149.932 50.2051 145.756 50.2051 140.662H47.8291ZM42.1951 140.662V142.552H48.9631V140.662H42.1951ZM58.3757 140.158V141.868H68.1677V140.158H58.3757ZM63.2717 142.264C60.7877 142.264 59.1317 143.254 59.1317 144.766C59.1317 146.296 60.7877 147.268 63.2717 147.268C65.7557 147.268 67.4117 146.296 67.4117 144.766C67.4117 143.254 65.7557 142.264 63.2717 142.264ZM63.2717 143.848C64.4057 143.848 65.1257 144.154 65.1257 144.766C65.1257 145.36 64.4057 145.684 63.2717 145.684C62.1557 145.684 61.4177 145.36 61.4177 144.766C61.4177 144.154 62.1557 143.848 63.2717 143.848ZM62.0657 138.826V141.022H64.4777V138.826H62.0657ZM62.0657 146.386V148.708H64.4777V146.386H62.0657ZM69.3017 138.952V150.238H71.7137V138.952H69.3017ZM60.1937 150.886V152.722H69.3017V155.602H71.7137V150.886H60.1937ZM58.1957 149.914C61.1297 149.914 64.9637 149.86 68.4917 149.248L68.3117 147.646C64.9097 148.078 60.9137 148.096 57.9077 148.096L58.1957 149.914ZM77.5586 151.908L77.6904 152.11C77.585 152.532 77.4473 152.986 77.2773 153.473C77.1133 153.959 76.9316 154.445 76.7324 154.932C76.5391 155.418 76.3428 155.881 76.1436 156.32H74.21C74.3271 155.846 74.4414 155.348 74.5527 154.826C74.6641 154.305 74.7666 153.792 74.8604 153.288C74.96 152.784 75.0391 152.324 75.0977 151.908H77.5586ZM95.6148 138.934V155.656H98.0268V138.934H95.6148ZM85.1928 149.68V151.678H86.6328C90.2148 151.678 92.3208 151.606 94.5708 151.156L94.3548 149.194C92.1228 149.608 90.1428 149.68 86.6328 149.68H85.1928ZM85.1928 140.41V150.436H87.5688V142.336H93.2388V140.41H85.1928ZM104.487 141.562V143.434C104.487 146.17 103.137 149.284 100.383 150.58L101.733 152.47C104.793 151.03 106.377 147.196 106.377 143.434V141.562H104.487ZM104.991 141.562V143.434C104.991 146.98 106.539 150.634 109.599 152.056L110.913 150.166C108.177 148.906 106.881 145.954 106.881 143.434V141.562H104.991ZM101.031 140.536V142.498H110.175V140.536H101.031ZM111.399 138.934V155.602H113.811V138.934H111.399ZM113.271 145.288V147.268H116.223V145.288H113.271ZM128.75 138.952V150.922H131.162V138.952H128.75ZM120.056 153.406V155.314H131.576V153.406H120.056ZM120.056 149.716V154.18H122.45V149.716H120.056ZM122.09 139.996C119.534 139.996 117.554 141.76 117.554 144.226C117.554 146.674 119.534 148.456 122.09 148.456C124.646 148.456 126.608 146.674 126.608 144.226C126.608 141.76 124.646 139.996 122.09 139.996ZM122.09 142.066C123.314 142.066 124.268 142.858 124.268 144.226C124.268 145.576 123.314 146.368 122.09 146.368C120.848 146.368 119.894 145.576 119.894 144.226C119.894 142.858 120.848 142.066 122.09 142.066ZM137.043 151.908L137.175 152.11C137.069 152.532 136.932 152.986 136.762 153.473C136.598 153.959 136.416 154.445 136.217 154.932C136.023 155.418 135.827 155.881 135.628 156.32H133.694C133.812 155.846 133.926 155.348 134.037 154.826C134.148 154.305 134.251 153.792 134.345 153.288C134.444 152.784 134.523 152.324 134.582 151.908H137.043ZM155.657 138.934V155.602H157.943V138.934H155.657ZM153.551 145.216V147.124H156.305V145.216H153.551ZM148.583 140.968V141.472C148.583 145.468 147.251 148.276 143.453 150.526L144.839 152.182C149.501 149.464 150.869 145.666 150.869 140.968H148.583ZM144.299 140.968V142.894H149.285V140.968H144.299ZM151.967 139.366V154.882H154.199V139.366H151.967ZM160.714 139.672V146.962H168.724V139.672H166.348V141.634H163.09V139.672H160.714ZM163.09 143.434H166.348V145.09H163.09V143.434ZM170.956 138.934V147.394H173.35V138.934H170.956ZM172.378 142.138V144.082H175.546V142.138H172.378ZM162.334 148.042V149.878H170.992V150.868H162.37V154.558H164.746V152.578H173.35V148.042H162.334ZM162.37 153.64V155.494H173.836V153.64H162.37ZM179.969 151.908L180.101 152.11C179.995 152.532 179.857 152.986 179.688 153.473C179.523 153.959 179.342 154.445 179.143 154.932C178.949 155.418 178.753 155.881 178.554 156.32H176.62C176.737 155.846 176.852 155.348 176.963 154.826C177.074 154.305 177.177 153.792 177.271 153.288C177.37 152.784 177.449 152.324 177.508 151.908H179.969ZM198.637 138.934V155.602H200.923V138.934H198.637ZM192.301 145.018V146.944H196.171V145.018H192.301ZM195.199 139.222V154.864H197.431V139.222H195.199ZM187.081 149.932V151.912H188.233C190.663 151.912 192.319 151.84 194.173 151.462L193.993 149.518C192.157 149.878 190.591 149.932 188.233 149.932H187.081ZM187.081 140.806V150.76H189.439V142.714H193.435V140.806H187.081ZM214.584 138.916V155.638H216.996V138.916H214.584ZM208.014 140.086C205.494 140.086 203.64 142.39 203.64 146.026C203.64 149.698 205.494 152.002 208.014 152.002C210.534 152.002 212.388 149.698 212.388 146.026C212.388 142.39 210.534 140.086 208.014 140.086ZM208.014 142.264C209.256 142.264 210.084 143.578 210.084 146.026C210.084 148.51 209.256 149.842 208.014 149.842C206.772 149.842 205.926 148.51 205.926 146.026C205.926 143.578 206.772 142.264 208.014 142.264ZM231.322 138.916V155.638H233.698V138.916H231.322ZM228.46 144.784V146.728H231.592V144.784H228.46ZM220.468 149.932V151.876H221.8C224.608 151.876 226.768 151.804 229.18 151.426L228.964 149.518C226.606 149.896 224.554 149.932 221.8 149.932H220.468ZM220.468 140.32V150.544H222.844V142.264H228.19V140.32H220.468ZM222.304 144.964V146.836H227.614V144.964H222.304ZM242.873 139.222V144.802H254.105V139.222H251.729V140.32H245.231V139.222H242.873ZM245.231 142.066H251.729V143.038H245.231V142.066ZM240.947 145.702V147.574H256.013V145.702H240.947ZM242.675 148.528V150.274H251.837V151.12H242.693V154.27H245.051V152.758H254.195V148.528H242.675ZM242.693 153.712V155.494H254.627V153.712H242.693ZM268.197 138.916V155.638H270.573V138.916H268.197ZM270.033 145.216V147.196H272.985V145.216H270.033ZM258.189 149.806V151.768H259.593C262.491 151.768 264.777 151.66 267.297 151.21L267.063 149.284C264.615 149.716 262.419 149.806 259.593 149.806H258.189ZM258.171 140.338V142.246H263.463V144.892H258.189V150.544H260.565V146.8H265.839V140.338H258.171ZM275.99 139.222V144.802H287.222V139.222H284.846V140.32H278.348V139.222H275.99ZM278.348 142.066H284.846V143.038H278.348V142.066ZM274.064 145.702V147.574H289.13V145.702H274.064ZM275.792 148.528V150.274H284.954V151.12H275.81V154.27H278.168V152.758H287.312V148.528H275.792ZM275.81 153.712V155.494H287.744V153.712H275.81ZM301.314 138.916V155.638H303.69V138.916H301.314ZM303.15 145.216V147.196H306.102V145.216H303.15ZM291.306 149.806V151.768H292.71C295.608 151.768 297.894 151.66 300.414 151.21L300.18 149.284C297.732 149.716 295.536 149.806 292.71 149.806H291.306ZM291.288 140.338V142.246H296.58V144.892H291.306V150.544H293.682V146.8H298.956V140.338H291.288Z" fill="#888888"/>
</svg>
