<svg width="100" height="100" viewBox="0 0 100 100" fill="none" xmlns="http://www.w3.org/2000/svg">
<path fill-rule="evenodd" clip-rule="evenodd" d="M12.5 68.75H18.75V43.6875H12.5V68.75ZM18.75 37.4375V34.375L21.875 31.25H49.5625L52.25 32.8125L54.9375 37.5H90.625L93.75 40.625V90.625L90.625 93.75H21.875L18.75 90.625V75H9.375L6.25 71.875V15.625L9.375 12.5H37L39.75 14.0625L42.4375 18.75H78.125L81.25 21.875V37.5L75 37.3125V25H40.625L37.9375 23.4375L35.25 18.75H12.5V37.4375H18.75ZM50.4375 42.1875L47.75 37.5H25V56.25H44.6875L47.25 51.625L50 50H87.5V43.75H53.125L50.4375 42.1875ZM46.5625 62.5H25V87.5H87.5V56.25H51.875L49.3125 60.875L46.5625 62.5Z" fill="#FB9749"/>
</svg>
