<svg width="180" height="181" viewBox="0 0 180 181" fill="none" xmlns="http://www.w3.org/2000/svg">
<rect y="0.996094" width="180" height="180" rx="20" fill="white"/>
<path fill-rule="evenodd" clip-rule="evenodd" d="M52.5 122.746H58.75V97.6836H52.5V122.746ZM58.75 91.4336V88.3711L61.875 85.2461H89.5625L92.25 86.8086L94.9375 91.4961H130.625L133.75 94.6211V144.621L130.625 147.746H61.875L58.75 144.621V128.996H49.375L46.25 125.871V69.6211L49.375 66.4961H77L79.75 68.0586L82.4375 72.7461H118.125L121.25 75.8711V91.4961L115 91.3086V78.9961H80.625L77.9375 77.4336L75.25 72.7461H52.5V91.4336H58.75ZM90.4375 96.1836L87.75 91.4961H65V110.246H84.6875L87.25 105.621L90 103.996H127.5V97.7461H93.125L90.4375 96.1836ZM86.5625 116.496H65V141.496H127.5V110.246H91.875L89.3125 114.871L86.5625 116.496Z" fill="#FB9749"/>
<path d="M44.8239 45.5361V47.7161H61.5839V45.5361H44.8239ZM51.8239 41.3561V46.5161H54.4839V41.3561H51.8239ZM46.1039 32.7761V34.8961H60.2039V32.7761H46.1039ZM46.1839 40.1561V42.2361H60.1439V40.1561H46.1839ZM48.6239 34.5361V40.3961H51.2839V34.5361H48.6239ZM55.0439 34.5361V40.3961H57.6839V34.5361H55.0439ZM65.1823 40.7961V42.8761H78.2023V40.7961H65.1823ZM63.2223 45.4961V47.6561H79.9823V45.4961H63.2223ZM65.1823 32.5961V41.3761H67.8823V34.7361H78.0423V32.5961H65.1823ZM67.0623 36.6761V38.7361H77.6223V36.6761H67.0623ZM83.0608 31.6761V33.6561H96.8608V31.6761H83.0608ZM83.2008 36.0161V37.9961H96.7208V36.0161H83.2008ZM85.4208 32.4561V37.2961H88.0808V32.4561H85.4208ZM91.8408 32.4561V37.2961H94.5008V32.4561H91.8408ZM81.6008 39.1161V41.1761H98.3408V39.1161H81.6008ZM88.6208 37.4561V40.0561H91.2808V37.4561H88.6208ZM83.5208 42.1161V44.0161H93.7008V44.9361H83.5408V48.4561H86.1608V46.7161H96.3208V42.1161H83.5208ZM83.5408 47.7161V49.6561H96.8008V47.7161H83.5408ZM112.759 31.2361V49.8161H115.419V31.2361H112.759ZM100.999 43.3361V45.4961H102.639C106.019 45.4961 108.739 45.3961 111.739 44.8561L111.479 42.7161C108.539 43.2161 105.919 43.3361 102.639 43.3361H100.999ZM100.979 32.8161V34.9361H106.999V37.8761H100.999V44.1361H103.699V39.9761H109.719V32.8161H100.979ZM125.438 41.6761V45.8961H128.098V41.6761H125.438ZM126.778 32.1961C122.818 32.1961 119.858 34.2161 119.858 37.2961C119.858 40.4161 122.818 42.4161 126.778 42.4161C130.738 42.4161 133.698 40.4161 133.698 37.2961C133.698 34.2161 130.738 32.1961 126.778 32.1961ZM126.778 34.2961C129.318 34.2961 131.078 35.4161 131.078 37.2961C131.078 39.2161 129.318 40.3161 126.778 40.3161C124.238 40.3161 122.478 39.2161 122.478 37.2961C122.478 35.4161 124.238 34.2961 126.778 34.2961ZM118.418 45.4761V47.6361H135.178V45.4761H118.418Z" fill="black"/>
</svg>
