<svg width="20" height="21" viewBox="0 0 20 21" fill="none" xmlns="http://www.w3.org/2000/svg">
<path d="M13.75 8.49805C13.75 9.49261 13.3549 10.4464 12.6517 11.1497C11.9484 11.853 10.9946 12.248 10 12.248C9.00544 12.248 8.05161 11.853 7.34835 11.1497C6.64509 10.4464 6.25 9.49261 6.25 8.49805C6.25 7.50348 6.64509 6.54966 7.34835 5.8464C8.05161 5.14314 9.00544 4.74805 10 4.74805C10.9946 4.74805 11.9484 5.14314 12.6517 5.8464C13.3549 6.54966 13.75 7.50348 13.75 8.49805Z" fill="#888888"/>
<path fill-rule="evenodd" clip-rule="evenodd" d="M0 10.998C0 8.34588 1.05357 5.80234 2.92893 3.92698C4.8043 2.05162 7.34784 0.998047 10 0.998047C12.6522 0.998047 15.1957 2.05162 17.0711 3.92698C18.9464 5.80234 20 8.34588 20 10.998C20 13.6502 18.9464 16.1938 17.0711 18.0691C15.1957 19.9445 12.6522 20.998 10 20.998C7.34784 20.998 4.8043 19.9445 2.92893 18.0691C1.05357 16.1938 0 13.6502 0 10.998ZM10 2.24805C8.35222 2.24813 6.73796 2.7135 5.343 3.59058C3.94805 4.46766 2.8291 5.72081 2.11496 7.20579C1.40081 8.69077 1.12048 10.3472 1.30625 11.9845C1.49201 13.6218 2.13632 15.1733 3.165 16.4605C4.0525 15.0305 6.00625 13.498 10 13.498C13.9937 13.498 15.9463 15.0293 16.835 16.4605C17.8637 15.1733 18.508 13.6218 18.6938 11.9845C18.8795 10.3472 18.5992 8.69077 17.885 7.20579C17.1709 5.72081 16.052 4.46766 14.657 3.59058C13.262 2.7135 11.6478 2.24813 10 2.24805Z" fill="#888888"/>
</svg>
