<svg width="130" height="67" viewBox="0 0 130 67" fill="none" xmlns="http://www.w3.org/2000/svg">
<path d="M36.2386 38.9859C40.6323 34.5934 37.8636 24.6997 30.0511 16.8897C22.2423 9.07841 12.3498 6.30841 7.95607 10.7022C3.56232 15.0959 6.33232 24.9897 14.1436 32.7997C21.9536 40.6097 31.8473 43.3797 36.2398 38.9872L36.2386 38.9859Z" stroke="#FB9749" stroke-width="4" stroke-linecap="round" stroke-linejoin="round"/>
<path d="M36.2388 27.8276C40.6326 32.2201 37.8626 42.1138 30.0513 49.9238C22.2413 57.7351 12.3488 60.5051 7.95509 56.1113C3.56134 51.7176 6.33134 41.8238 14.1426 34.0138C21.9526 26.2038 31.8463 23.4338 36.2388 27.8263V27.8276Z" stroke="#FB9749" stroke-width="4" stroke-linecap="round" stroke-linejoin="round"/>
<path d="M25.0117 38.9859C20.618 34.5934 23.388 24.6997 31.1992 16.8897C39.0092 9.07841 48.9017 6.30841 53.2955 10.7022C57.6892 15.0959 54.9192 24.9897 47.108 32.7997C39.298 40.6097 29.4042 43.3797 25.0117 38.9872V38.9859Z" stroke="#FB9749" stroke-width="4" stroke-linecap="round" stroke-linejoin="round"/>
<path d="M25.0117 27.8276C20.618 32.2201 23.388 42.1138 31.1992 49.9238C39.0092 57.7351 48.9017 60.5051 53.2955 56.1113C57.6892 51.7176 54.9192 41.8238 47.108 34.0138C39.298 26.2038 29.4042 23.4338 25.0117 27.8263V27.8276Z" stroke="#FB9749" stroke-width="4" stroke-linecap="round" stroke-linejoin="round"/>
<path d="M101.272 6.91005V29.134H104.488V6.91005H101.272ZM86.512 8.95005V11.494H98.992V8.95005H86.512ZM86.224 24.07C90.232 24.046 95.344 23.95 100.024 23.158L99.856 20.83C95.272 21.382 89.92 21.454 85.912 21.454L86.224 24.07ZM88.432 10.942V22.15H91.528V10.942H88.432ZM93.976 10.942V22.15H97.072V10.942H93.976ZM114.134 8.44605C110.798 8.44605 108.398 11.518 108.398 16.366C108.398 21.262 110.798 24.334 114.134 24.334C117.446 24.334 119.87 21.262 119.87 16.366C119.87 11.518 117.446 8.44605 114.134 8.44605ZM114.134 11.35C115.766 11.35 116.822 13.102 116.822 16.366C116.822 19.678 115.766 21.454 114.134 21.454C112.526 21.454 111.446 19.678 111.446 16.366C111.446 13.102 112.526 11.35 114.134 11.35ZM123.518 6.88605V29.182H126.686V6.88605H123.518ZM118.934 14.902V17.47H124.862V14.902H118.934ZM102.544 48.31V50.926H106.456V48.31H102.544ZM100.168 39.886V62.11H103.384V39.886H100.168ZM86.632 42.022V55.822H89.824V42.022H86.632ZM86.632 54.046V56.686H88.552C91.816 56.686 95.392 56.494 99.064 55.726L98.728 53.11C95.152 53.83 91.72 54.046 88.552 54.046H86.632ZM122.246 39.886V62.182H125.462V39.886H122.246ZM124.742 48.118V50.734H128.678V48.118H124.742ZM108.902 54.19V56.83H110.774C114.638 56.83 117.686 56.734 121.046 56.134L120.734 53.494C117.47 54.07 114.518 54.19 110.774 54.19H108.902ZM108.902 41.95V55.462H112.07V44.518H119.27V41.95H108.902Z" fill="#FB9749"/>
</svg>
