<svg width="20" height="26" viewBox="0 0 20 26" fill="none" xmlns="http://www.w3.org/2000/svg">
<path d="M20 12.998C20 11.6193 18.8787 10.498 17.5 10.498H16.25V6.74805C16.25 3.3018 13.4462 0.498047 10 0.498047C6.55375 0.498047 3.75 3.3018 3.75 6.74805V10.498H2.5C1.12125 10.498 0 11.6193 0 12.998V22.998C0 24.3768 1.12125 25.498 2.5 25.498H17.5C18.8787 25.498 20 24.3768 20 22.998V12.998ZM6.25 6.74805C6.25 4.68055 7.9325 2.99805 10 2.99805C12.0675 2.99805 13.75 4.68055 13.75 6.74805V10.498H6.25V6.74805Z" fill="#888888"/>
</svg>
